<svg width="20" height="20" viewBox="0 0 21 21" fill="none" xmlns="http://www.w3.org/2000/svg">
    <path d="M0 10.3618C0 9.46433 0.114132 8.59485 0.327869 7.76377C0.901085 7.7939 1.47147 7.66494 1.97597 7.39115C2.48047 7.11735 2.89944 6.70939 3.18656 6.21235C3.47368 5.71531 3.61777 5.14856 3.6029 4.57475C3.58803 4.00093 3.41478 3.4424 3.1023 2.9609C4.35665 1.7268 5.90454 0.832345 7.60012 0.361816C7.86054 0.873824 8.25756 1.30378 8.74723 1.6041C9.23691 1.90441 9.80013 2.06337 10.3746 2.06337C10.949 2.06337 11.5122 1.90441 12.0019 1.6041C12.4916 1.30378 12.8886 0.873824 13.149 0.361816C14.8446 0.832345 16.3925 1.7268 17.6468 2.9609C17.334 3.44249 17.1605 4.00123 17.1455 4.57531C17.1305 5.14939 17.2746 5.71642 17.5619 6.21367C17.8492 6.71091 18.2685 7.11899 18.7733 7.39275C19.2781 7.66651 19.8488 7.79528 20.4223 7.7648C20.636 8.59485 20.7502 9.46433 20.7502 10.3618C20.7502 11.2593 20.636 12.1288 20.4223 12.9599C19.849 12.9295 19.2785 13.0583 18.7738 13.3321C18.2691 13.6058 17.85 14.0137 17.5628 14.5108C17.2755 15.0079 17.1313 15.5747 17.1462 16.1486C17.161 16.7225 17.3343 17.2812 17.6468 17.7627C16.3925 18.9968 14.8446 19.8913 13.149 20.3618C12.8886 19.8498 12.4916 19.4198 12.0019 19.1195C11.5122 18.8192 10.949 18.6603 10.3746 18.6603C9.80013 18.6603 9.23691 18.8192 8.74723 19.1195C8.25756 19.4198 7.86054 19.8498 7.60012 20.3618C5.90454 19.8913 4.35665 18.9968 3.1023 17.7627C3.41513 17.2811 3.58864 16.7224 3.60362 16.1483C3.6186 15.5742 3.47447 15.0072 3.18719 14.51C2.8999 14.0127 2.48065 13.6046 1.97583 13.3309C1.47101 13.0571 0.900295 12.9284 0.326831 12.9588C0.114132 12.1298 0 11.2603 0 10.3618ZM4.98444 13.4745C5.6381 14.6065 5.82486 15.9086 5.56962 17.1309C5.99294 17.4317 6.44325 17.6922 6.91533 17.909C7.86643 17.057 9.09869 16.5863 10.3756 16.5872C11.6829 16.5872 12.9052 17.0759 13.8359 17.909C14.3079 17.6922 14.7582 17.4317 15.1816 17.1309C14.9195 15.8816 15.1279 14.5796 15.7668 13.4745C16.4045 12.3688 17.4279 11.5375 18.6408 11.14C18.6888 10.6223 18.6888 10.1013 18.6408 9.58365C17.4275 9.18632 16.4037 8.35499 15.7657 7.24914C15.1269 6.14406 14.9185 4.84204 15.1805 3.59278C14.7573 3.2918 14.3068 3.03127 13.8348 2.81461C12.884 3.66637 11.6521 4.13709 10.3756 4.13646C9.09869 4.13735 7.86643 3.66661 6.91533 2.81461C6.44338 3.03128 5.99283 3.29181 5.56962 3.59278C5.83167 4.84204 5.62329 6.14406 4.98444 7.24914C4.34672 8.35479 3.32329 9.1861 2.1104 9.58365C2.06241 10.1013 2.06241 10.6223 2.1104 11.14C3.32367 11.5373 4.34751 12.3686 4.98547 13.4745H4.98444ZM10.3756 13.4745C9.55006 13.4745 8.75834 13.1466 8.1746 12.5628C7.59086 11.9791 7.26292 11.1874 7.26292 10.3618C7.26292 9.53628 7.59086 8.74456 8.1746 8.16082C8.75834 7.57708 9.55006 7.24914 10.3756 7.24914C11.2011 7.24914 11.9929 7.57708 12.5766 8.16082C13.1603 8.74456 13.4883 9.53628 13.4883 10.3618C13.4883 11.1874 13.1603 11.9791 12.5766 12.5628C11.9929 13.1466 11.2011 13.4745 10.3756 13.4745ZM10.3756 11.3994C10.6508 11.3994 10.9147 11.2901 11.1093 11.0955C11.3038 10.9009 11.4132 10.637 11.4132 10.3618C11.4132 10.0866 11.3038 9.82273 11.1093 9.62815C10.9147 9.43357 10.6508 9.32426 10.3756 9.32426C10.1004 9.32426 9.83651 9.43357 9.64193 9.62815C9.44735 9.82273 9.33804 10.0866 9.33804 10.3618C9.33804 10.637 9.44735 10.9009 9.64193 11.0955C9.83651 11.2901 10.1004 11.3994 10.3756 11.3994Z" fill="#2c3e69"/>
</svg>