<svg width="22" height="21" viewBox="0 0 22 21" fill="none" xmlns="http://www.w3.org/2000/svg">
<path d="M0.509766 10.2654C0.509766 9.36789 0.623897 8.49842 0.837634 7.66733C1.41085 7.69746 1.98124 7.5685 2.48574 7.29471C2.99024 7.02092 3.4092 6.61295 3.69633 6.11591C3.98345 5.61888 4.12753 5.05213 4.11266 4.47831C4.0978 3.9045 3.92455 3.34597 3.61207 2.86447C4.86642 1.63036 6.4143 0.73591 8.10989 0.265381C8.37031 0.777388 8.76733 1.20735 9.257 1.50766C9.74667 1.80798 10.3099 1.96693 10.8843 1.96693C11.4588 1.96693 12.022 1.80798 12.5117 1.50766C13.0013 1.20735 13.3983 0.777388 13.6588 0.265381C15.3543 0.73591 16.9022 1.63036 18.1566 2.86447C17.8437 3.34605 17.6702 3.9048 17.6553 4.47887C17.6403 5.05295 17.7844 5.61998 18.0717 6.11723C18.359 6.61448 18.7782 7.02256 19.2831 7.29632C19.7879 7.57008 20.3586 7.69884 20.9321 7.66837C21.1458 8.49842 21.2599 9.36789 21.2599 10.2654C21.2599 11.1629 21.1458 12.0323 20.9321 12.8634C20.3587 12.8331 19.7882 12.9619 19.2836 13.2356C18.7789 13.5093 18.3598 13.9173 18.0725 14.4144C17.7853 14.9114 17.6411 15.4783 17.6559 16.0522C17.6708 16.6261 17.844 17.1847 18.1566 17.6663C16.9022 18.9004 15.3543 19.7949 13.6588 20.2654C13.3983 19.7534 13.0013 19.3234 12.5117 19.0231C12.022 18.7228 11.4588 18.5638 10.8843 18.5638C10.3099 18.5638 9.74667 18.7228 9.257 19.0231C8.76733 19.3234 8.37031 19.7534 8.10989 20.2654C6.4143 19.7949 4.86642 18.9004 3.61207 17.6663C3.9249 17.1847 4.0984 16.626 4.11338 16.0519C4.12837 15.4778 3.98424 14.9108 3.69695 14.4135C3.40967 13.9163 2.99042 13.5082 2.4856 13.2344C1.98078 12.9607 1.41006 12.8319 0.836597 12.8624C0.623897 12.0334 0.509766 11.1639 0.509766 10.2654ZM5.4942 13.3781C6.14786 14.51 6.33463 15.8122 6.07939 17.0344C6.50271 17.3353 6.95301 17.5957 7.4251 17.8126C8.3762 16.9606 9.60845 16.4899 10.8854 16.4907C12.1927 16.4907 13.4149 16.9794 14.3456 17.8126C14.8177 17.5957 15.268 17.3353 15.6913 17.0344C15.4293 15.7852 15.6377 14.4831 16.2765 13.3781C16.9142 12.2724 17.9377 11.4411 19.1506 11.0436C19.1985 10.5259 19.1985 10.0049 19.1506 9.48721C17.9373 9.08989 16.9135 8.25855 16.2755 7.1527C15.6366 6.04763 15.4283 4.7456 15.6903 3.49634C15.2671 3.19537 14.8165 2.93483 14.3446 2.71817C13.3938 3.56994 12.1619 4.04065 10.8854 4.04002C9.60845 4.04091 8.3762 3.57018 7.4251 2.71817C6.95315 2.93484 6.50259 3.19537 6.07939 3.49634C6.34144 4.7456 6.13305 6.04763 5.4942 7.1527C4.85649 8.25835 3.83305 9.08967 2.62016 9.48721C2.57218 10.0049 2.57218 10.5259 2.62016 11.0436C3.83344 11.4409 4.85727 12.2722 5.49524 13.3781H5.4942ZM10.8854 13.3781C10.0598 13.3781 9.26811 13.0501 8.68437 12.4664C8.10062 11.8826 7.77268 11.0909 7.77268 10.2654C7.77268 9.43985 8.10062 8.64812 8.68437 8.06438C9.26811 7.48064 10.0598 7.1527 10.8854 7.1527C11.7109 7.1527 12.5026 7.48064 13.0864 8.06438C13.6701 8.64812 13.998 9.43985 13.998 10.2654C13.998 11.0909 13.6701 11.8826 13.0864 12.4664C12.5026 13.0501 11.7109 13.3781 10.8854 13.3781ZM10.8854 11.3029C11.1605 11.3029 11.4244 11.1936 11.619 10.999C11.8136 10.8045 11.9229 10.5406 11.9229 10.2654C11.9229 9.9902 11.8136 9.7263 11.619 9.53171C11.4244 9.33713 11.1605 9.22782 10.8854 9.22782C10.6102 9.22782 10.3463 9.33713 10.1517 9.53171C9.95712 9.7263 9.8478 9.9902 9.8478 10.2654C9.8478 10.5406 9.95712 10.8045 10.1517 10.999C10.3463 11.1936 10.6102 11.3029 10.8854 11.3029Z" fill="#333333"/>
</svg>
