<svg width="33" height="17" viewBox="0 0 33 17" fill="none" xmlns="http://www.w3.org/2000/svg">
<path d="M29.541 5.14667H31.1321C31.554 5.14667 31.9587 5.26334 32.2571 5.471C32.5555 5.67867 32.7231 5.96033 32.7231 6.25402V10.6834C32.7231 10.9771 32.5555 11.2587 32.2571 11.4664C31.9587 11.6741 31.554 11.7907 31.1321 11.7907H29.541V15.1128C29.541 15.4065 29.3733 15.6881 29.075 15.8958C28.7766 16.1035 28.3719 16.2201 27.9499 16.2201H2.49259C2.07061 16.2201 1.66591 16.1035 1.36752 15.8958C1.06914 15.6881 0.90151 15.4065 0.90151 15.1128V1.82463C0.90151 1.53094 1.06914 1.24929 1.36752 1.04162C1.66591 0.833952 2.07061 0.717285 2.49259 0.717285L27.9499 0.717285C28.3719 0.717285 28.7766 0.833952 29.075 1.04162C29.3733 1.24929 29.541 1.53094 29.541 1.82463V5.14667ZM16.8123 9.57605H24.7677L13.6302 4.03932V7.36136H5.67475L16.8123 12.8981V9.57605Z" fill="#BD072B"/>
</svg>
