<svg width="20" height="20" viewBox="0 0 23 21" fill="none" xmlns="http://www.w3.org/2000/svg">
        <path d="M18.7917 20.8748H4.20841C3.93215 20.8748 3.6672 20.765 3.47185 20.5697C3.27649 20.3743 3.16675 20.1094 3.16675 19.8331V10.4581H0.041748L10.799 0.678921C10.9908 0.504418 11.2408 0.407715 11.5001 0.407715C11.7594 0.407715 12.0093 0.504418 12.2011 0.678921L22.9584 10.4581H19.8334V19.8331C19.8334 20.1094 19.7237 20.3743 19.5283 20.5697C19.333 20.765 19.068 20.8748 18.7917 20.8748ZM5.25008 18.7914H17.7501V8.53829L11.5001 2.85705L5.25008 8.53829V18.7914ZM7.94904 13.3841C7.81705 12.8287 7.81705 12.25 7.94904 11.6945L6.91675 11.0987L7.95842 9.29455L8.99071 9.89142C9.40514 9.4987 9.90613 9.20895 10.4532 9.04559V7.85392H12.5365V9.04559C13.0907 9.21121 13.5886 9.50392 13.999 9.89142L15.0313 9.29455L16.073 11.0977L15.0407 11.6945C15.1727 12.25 15.1727 12.8287 15.0407 13.3841L16.073 13.98L15.0313 15.7831L13.999 15.1873C13.5845 15.5796 13.0835 15.869 12.5365 16.032V17.2248H10.4532V16.031C9.90622 15.8679 9.40524 15.5786 8.99071 15.1862L7.95842 15.782L6.91675 13.98L7.94904 13.3831V13.3841ZM11.4949 14.1008C11.7047 14.1085 11.914 14.0737 12.1101 13.9987C12.3062 13.9237 12.4852 13.8099 12.6364 13.6642C12.7876 13.5184 12.9078 13.3437 12.99 13.1504C13.0721 12.9572 13.1144 12.7493 13.1144 12.5393C13.1144 12.3293 13.0721 12.1215 12.99 11.9282C12.9078 11.735 12.7876 11.5602 12.6364 11.4145C12.4852 11.2687 12.3062 11.155 12.1101 11.0799C11.914 11.0049 11.7047 10.9702 11.4949 10.9779C11.0906 10.9926 10.7078 11.1636 10.4271 11.4548C10.1463 11.7461 9.98942 12.1348 9.98942 12.5393C9.98942 12.9439 10.1463 13.3326 10.4271 13.6238C10.7078 13.9151 11.0906 14.086 11.4949 14.1008Z" fill="#2c3e69"/>
</svg>