<svg width="20" height="20" viewBox="0 0 23 20" fill="none" xmlns="http://www.w3.org/2000/svg">

        <path d="M8.61111 6.66667C8.83212 6.66667 9.04409 6.75446 9.20037 6.91075C9.35665 7.06703 9.44444 7.27899 9.44444 7.5V10.2778C9.44444 11.0444 10.0667 11.6667 10.8333 11.6667H11.6667V7.5C11.6667 7.27899 11.7545 7.06703 11.9107 6.91075C12.067 6.75446 12.279 6.66667 12.5 6.66667C12.721 6.66667 12.933 6.75446 13.0893 6.91075C13.2455 7.06703 13.3333 7.27899 13.3333 7.5V11.6667H18.0556C18.2766 11.6667 18.4885 11.7545 18.6448 11.9107C18.8011 12.067 18.8889 12.279 18.8889 12.5C18.8889 12.721 18.8011 12.933 18.6448 13.0893C18.4885 13.2455 18.2766 13.3333 18.0556 13.3333H10.8333C10.0229 13.3333 9.24576 13.0114 8.67273 12.4384C8.0997 11.8654 7.77778 11.0882 7.77778 10.2778V7.5C7.77778 7.27899 7.86558 7.06703 8.02186 6.91075C8.17814 6.75446 8.3901 6.66667 8.61111 6.66667ZM8.61111 0C8.83212 0 9.04409 0.0877973 9.20037 0.244078C9.35665 0.400358 9.44444 0.61232 9.44444 0.833333V2.22222H11.6667V0.833333C11.6667 0.61232 11.7545 0.400358 11.9107 0.244078C12.067 0.0877973 12.279 0 12.5 0C12.721 0 12.933 0.0877973 13.0893 0.244078C13.2455 0.400358 13.3333 0.61232 13.3333 0.833333V2.22222H16.3889C16.5553 2.22226 16.7179 2.27213 16.8557 2.3654C16.9936 2.45867 17.1003 2.59108 17.1622 2.74556L18.0644 5H19.1667C19.977 5 20.7542 5.32192 21.3273 5.89495C21.9003 6.46798 22.2222 7.24517 22.2222 8.05556V14.1667C22.2222 14.9771 21.9003 15.7542 21.3273 16.3273C20.7542 16.9003 19.977 17.2222 19.1667 17.2222H18.0644L17.1622 19.4767C17.1003 19.6311 16.9936 19.7635 16.8557 19.8568C16.7179 19.9501 16.5553 20 16.3889 20H8.05556C7.94136 20 7.82839 19.9765 7.72364 19.931C7.6189 19.8855 7.52462 19.819 7.44667 19.7356L4.15556 16.2089C3.62741 15.6433 3.33356 14.8983 3.33333 14.1244V10.5556H1.66667V14.7222C1.66667 14.9432 1.57887 15.1552 1.42259 15.3115C1.26631 15.4678 1.05435 15.5556 0.833333 15.5556C0.61232 15.5556 0.400358 15.4678 0.244078 15.3115C0.0877973 15.1552 4.65752e-09 14.9432 0 14.7222V5.27778C4.65752e-09 5.05676 0.0877973 4.8448 0.244078 4.68852C0.400358 4.53224 0.61232 4.44444 0.833333 4.44444C1.05435 4.44444 1.26631 4.53224 1.42259 4.68852C1.57887 4.8448 1.66667 5.05676 1.66667 5.27778V8.88889H3.33333V5.27778C3.33333 4.46739 3.65526 3.6902 4.22828 3.11717C4.80131 2.54415 5.57851 2.22222 6.38889 2.22222H7.77778V0.833333C7.77778 0.61232 7.86558 0.400358 8.02186 0.244078C8.17814 0.0877973 8.3901 0 8.61111 0ZM6.38889 3.88889C5.62222 3.88889 5 4.51111 5 5.27778V14.1244C5 14.4756 5.13333 14.8144 5.37333 15.0722L8.41778 18.3333H15.8244L16.7267 16.0789C16.7886 15.9244 16.8953 15.792 17.0331 15.6987C17.171 15.6055 17.3336 15.5556 17.5 15.5556H19.1667C19.9333 15.5556 20.5556 14.9333 20.5556 14.1667V8.05556C20.5556 7.28889 19.9333 6.66667 19.1667 6.66667H17.5C17.3336 6.66663 17.171 6.61676 17.0331 6.52349C16.8953 6.43022 16.7886 6.29781 16.7267 6.14333L15.8244 3.88889H6.38889Z" fill="#2c3e69"/>
</svg>