<svg width="0" height="0" class="hidden">
  <symbol stroke="none" xmlns="http://www.w3.org/2000/svg" viewBox="0 0 18 22" id="city">
      <path d="M9 18.8999L13.95 13.9499C14.9289 12.9709 15.5955 11.7236 15.8656 10.3658C16.1356 9.00795 15.9969 7.60052 15.4671 6.32148C14.9373 5.04244 14.04 3.94923 12.8889 3.18009C11.7378 2.41095 10.3844 2.00043 9 2.00043C7.61557 2.00043 6.26222 2.41095 5.11109 3.18009C3.95996 3.94923 3.06275 5.04244 2.53292 6.32148C2.00308 7.60052 1.86442 9.00795 2.13445 10.3658C2.40449 11.7236 3.07111 12.9709 4.05 13.9499L9 18.8999ZM9 21.7279L2.636 15.3639C1.37734 14.1052 0.520187 12.5016 0.172928 10.7558C-0.17433 9.00995 0.00390685 7.20035 0.685099 5.55582C1.36629 3.91129 2.51984 2.50569 3.99988 1.51677C5.47992 0.527838 7.21998 0 9 0C10.78 0 12.5201 0.527838 14.0001 1.51677C15.4802 2.50569 16.6337 3.91129 17.3149 5.55582C17.9961 7.20035 18.1743 9.00995 17.8271 10.7558C17.4798 12.5016 16.6227 14.1052 15.364 15.3639L9 21.7279V21.7279ZM9 10.9999C9.53044 10.9999 10.0391 10.7892 10.4142 10.4141C10.7893 10.0391 11 9.53035 11 8.99992C11 8.46949 10.7893 7.96078 10.4142 7.58571C10.0391 7.21064 9.53044 6.99992 9 6.99992C8.46957 6.99992 7.96086 7.21064 7.58579 7.58571C7.21072 7.96078 7 8.46949 7 8.99992C7 9.53035 7.21072 10.0391 7.58579 10.4141C7.96086 10.7892 8.46957 10.9999 9 10.9999ZM9 12.9999C7.93914 12.9999 6.92172 12.5785 6.17158 11.8283C5.42143 11.0782 5 10.0608 5 8.99992C5 7.93906 5.42143 6.92164 6.17158 6.17149C6.92172 5.42135 7.93914 4.99992 9 4.99992C10.0609 4.99992 11.0783 5.42135 11.8284 6.17149C12.5786 6.92164 13 7.93906 13 8.99992C13 10.0608 12.5786 11.0782 11.8284 11.8283C11.0783 12.5785 10.0609 12.9999 9 12.9999Z"/>
  </symbol>
  <symbol stroke="none" xmlns="http://www.w3.org/2000/svg" viewBox="0 0 23 21" id="model">
      <path d="M18.7917 20.8748H4.20841C3.93215 20.8748 3.6672 20.765 3.47185 20.5697C3.27649 20.3743 3.16675 20.1094 3.16675 19.8331V10.4581H0.041748L10.799 0.678921C10.9908 0.504418 11.2408 0.407715 11.5001 0.407715C11.7594 0.407715 12.0093 0.504418 12.2011 0.678921L22.9584 10.4581H19.8334V19.8331C19.8334 20.1094 19.7237 20.3743 19.5283 20.5697C19.333 20.765 19.068 20.8748 18.7917 20.8748ZM5.25008 18.7914H17.7501V8.53829L11.5001 2.85705L5.25008 8.53829V18.7914ZM7.94904 13.3841C7.81705 12.8287 7.81705 12.25 7.94904 11.6945L6.91675 11.0987L7.95842 9.29455L8.99071 9.89142C9.40514 9.4987 9.90613 9.20895 10.4532 9.04559V7.85392H12.5365V9.04559C13.0907 9.21121 13.5886 9.50392 13.999 9.89142L15.0313 9.29455L16.073 11.0977L15.0407 11.6945C15.1727 12.25 15.1727 12.8287 15.0407 13.3841L16.073 13.98L15.0313 15.7831L13.999 15.1873C13.5845 15.5796 13.0835 15.869 12.5365 16.032V17.2248H10.4532V16.031C9.90622 15.8679 9.40524 15.5786 8.99071 15.1862L7.95842 15.782L6.91675 13.98L7.94904 13.3831V13.3841ZM11.4949 14.1008C11.7047 14.1085 11.914 14.0737 12.1101 13.9987C12.3062 13.9237 12.4852 13.8099 12.6364 13.6642C12.7876 13.5184 12.9078 13.3437 12.99 13.1504C13.0721 12.9572 13.1144 12.7493 13.1144 12.5393C13.1144 12.3293 13.0721 12.1215 12.99 11.9282C12.9078 11.735 12.7876 11.5602 12.6364 11.4145C12.4852 11.2687 12.3062 11.155 12.1101 11.0799C11.914 11.0049 11.7047 10.9702 11.4949 10.9779C11.0906 10.9926 10.7078 11.1636 10.4271 11.4548C10.1463 11.7461 9.98942 12.1348 9.98942 12.5393C9.98942 12.9439 10.1463 13.3326 10.4271 13.6238C10.7078 13.9151 11.0906 14.086 11.4949 14.1008Z"/>
  </symbol>
  <symbol stroke="none" xmlns="http://www.w3.org/2000/svg" viewBox="0 0 20 20" id="calendar">
      <path d="M15 2H19C19.2652 2 19.5196 2.10536 19.7071 2.29289C19.8946 2.48043 20 2.73478 20 3V19C20 19.2652 19.8946 19.5196 19.7071 19.7071C19.5196 19.8946 19.2652 20 19 20H1C0.734784 20 0.48043 19.8946 0.292893 19.7071C0.105357 19.5196 0 19.2652 0 19V3C0 2.73478 0.105357 2.48043 0.292893 2.29289C0.48043 2.10536 0.734784 2 1 2H5V0H7V2H13V0H15V2ZM18 10H2V18H18V10ZM13 4H7V6H5V4H2V8H18V4H15V6H13V4ZM4 12H6V14H4V12ZM9 12H11V14H9V12ZM14 12H16V14H14V12Z"/>
  </symbol>
  <symbol stroke="none" xmlns="http://www.w3.org/2000/svg" viewBox="0 0 24 18" id="kuzov">
    <path d="M19 16H5V17C5 17.2652 4.89464 17.5196 4.70711 17.7071C4.51957 17.8946 4.26522 18 4 18H3C2.73478 18 2.48043 17.8946 2.29289 17.7071C2.10536 17.5196 2 17.2652 2 17V9.5L0.757 9.19C0.540753 9.13583 0.348809 9.01095 0.211655 8.83521C0.0745022 8.65946 5.86043e-06 8.44293 0 8.22L0 7.5C0 7.36739 0.0526784 7.24022 0.146447 7.14645C0.240215 7.05268 0.367392 7 0.5 7H2L4.48 1.212C4.63432 0.852001 4.89096 0.545239 5.21805 0.32978C5.54515 0.114322 5.92832 -0.000347568 6.32 7.91365e-07H17.68C18.0713 4.4012e-05 18.4541 0.114897 18.7808 0.330331C19.1075 0.545765 19.3638 0.852314 19.518 1.212L22 7H23.5C23.6326 7 23.7598 7.05268 23.8536 7.14645C23.9473 7.24022 24 7.36739 24 7.5V8.22C24 8.44293 23.9255 8.65946 23.7883 8.83521C23.6512 9.01095 23.4592 9.13583 23.243 9.19L22 9.5V17C22 17.2652 21.8946 17.5196 21.7071 17.7071C21.5196 17.8946 21.2652 18 21 18H20C19.7348 18 19.4804 17.8946 19.2929 17.7071C19.1054 17.5196 19 17.2652 19 17V16ZM20 14V9H4V14H20ZM5.477 7H18.523C18.6863 6.9999 18.8471 6.95979 18.9914 6.88318C19.1357 6.80657 19.2589 6.6958 19.3505 6.56054C19.442 6.42528 19.4991 6.26966 19.5166 6.10727C19.5341 5.94488 19.5116 5.78067 19.451 5.629L18 2H6L4.549 5.629C4.4884 5.78067 4.46588 5.94488 4.4834 6.10727C4.50092 6.26966 4.55795 6.42528 4.64951 6.56054C4.74106 6.6958 4.86435 6.80657 5.0086 6.88318C5.15285 6.95979 5.31367 6.9999 5.477 7ZM5 10C7.317 10 8.879 10.755 9.686 12.264C9.72679 12.3402 9.74714 12.4257 9.74506 12.5121C9.74297 12.5985 9.71852 12.6829 9.6741 12.757C9.62968 12.8311 9.5668 12.8925 9.49159 12.9351C9.41639 12.9777 9.33143 13 9.245 13H6C5.73478 13 5.48043 12.8946 5.29289 12.7071C5.10536 12.5196 5 12.2652 5 12V10ZM19 10V12C19 12.2652 18.8946 12.5196 18.7071 12.7071C18.5196 12.8946 18.2652 13 18 13H14.755C14.6687 12.9999 14.5838 12.9774 14.5088 12.9347C14.4337 12.892 14.3709 12.8307 14.3266 12.7566C14.2823 12.6825 14.258 12.5981 14.2559 12.5118C14.2539 12.4255 14.2742 12.3401 14.315 12.264C15.12 10.754 16.682 10 19 10Z"/>
  </symbol>
  <symbol stroke="none" xmlns="http://www.w3.org/2000/svg" viewBox="0 0 16 20" id="korobka">
    <path d="M4 3H0V0H4V3ZM0 20H4V17H0V20ZM10 0H6V3H10V0ZM6 20H10V17H6V20ZM12 0V3H16V0H12ZM13 9H9V5H7V9H3V5H1V15H3V11H7V15H9V11H15V5H13V9Z"/>
  </symbol>
  <symbol stroke="none" xmlns="http://www.w3.org/2000/svg" viewBox="0 0 23 20" id="obemdvigatelya">
    <path d="M8.61111 6.66667C8.83212 6.66667 9.04409 6.75446 9.20037 6.91075C9.35665 7.06703 9.44444 7.27899 9.44444 7.5V10.2778C9.44444 11.0444 10.0667 11.6667 10.8333 11.6667H11.6667V7.5C11.6667 7.27899 11.7545 7.06703 11.9107 6.91075C12.067 6.75446 12.279 6.66667 12.5 6.66667C12.721 6.66667 12.933 6.75446 13.0893 6.91075C13.2455 7.06703 13.3333 7.27899 13.3333 7.5V11.6667H18.0556C18.2766 11.6667 18.4885 11.7545 18.6448 11.9107C18.8011 12.067 18.8889 12.279 18.8889 12.5C18.8889 12.721 18.8011 12.933 18.6448 13.0893C18.4885 13.2455 18.2766 13.3333 18.0556 13.3333H10.8333C10.0229 13.3333 9.24576 13.0114 8.67273 12.4384C8.0997 11.8654 7.77778 11.0882 7.77778 10.2778V7.5C7.77778 7.27899 7.86558 7.06703 8.02186 6.91075C8.17814 6.75446 8.3901 6.66667 8.61111 6.66667ZM8.61111 0C8.83212 0 9.04409 0.0877973 9.20037 0.244078C9.35665 0.400358 9.44444 0.61232 9.44444 0.833333V2.22222H11.6667V0.833333C11.6667 0.61232 11.7545 0.400358 11.9107 0.244078C12.067 0.0877973 12.279 0 12.5 0C12.721 0 12.933 0.0877973 13.0893 0.244078C13.2455 0.400358 13.3333 0.61232 13.3333 0.833333V2.22222H16.3889C16.5553 2.22226 16.7179 2.27213 16.8557 2.3654C16.9936 2.45867 17.1003 2.59108 17.1622 2.74556L18.0644 5H19.1667C19.977 5 20.7542 5.32192 21.3273 5.89495C21.9003 6.46798 22.2222 7.24517 22.2222 8.05556V14.1667C22.2222 14.9771 21.9003 15.7542 21.3273 16.3273C20.7542 16.9003 19.977 17.2222 19.1667 17.2222H18.0644L17.1622 19.4767C17.1003 19.6311 16.9936 19.7635 16.8557 19.8568C16.7179 19.9501 16.5553 20 16.3889 20H8.05556C7.94136 20 7.82839 19.9765 7.72364 19.931C7.6189 19.8855 7.52462 19.819 7.44667 19.7356L4.15556 16.2089C3.62741 15.6433 3.33356 14.8983 3.33333 14.1244V10.5556H1.66667V14.7222C1.66667 14.9432 1.57887 15.1552 1.42259 15.3115C1.26631 15.4678 1.05435 15.5556 0.833333 15.5556C0.61232 15.5556 0.400358 15.4678 0.244078 15.3115C0.0877973 15.1552 4.65752e-09 14.9432 0 14.7222V5.27778C4.65752e-09 5.05676 0.0877973 4.8448 0.244078 4.68852C0.400358 4.53224 0.61232 4.44444 0.833333 4.44444C1.05435 4.44444 1.26631 4.53224 1.42259 4.68852C1.57887 4.8448 1.66667 5.05676 1.66667 5.27778V8.88889H3.33333V5.27778C3.33333 4.46739 3.65526 3.6902 4.22828 3.11717C4.80131 2.54415 5.57851 2.22222 6.38889 2.22222H7.77778V0.833333C7.77778 0.61232 7.86558 0.400358 8.02186 0.244078C8.17814 0.0877973 8.3901 0 8.61111 0ZM6.38889 3.88889C5.62222 3.88889 5 4.51111 5 5.27778V14.1244C5 14.4756 5.13333 14.8144 5.37333 15.0722L8.41778 18.3333H15.8244L16.7267 16.0789C16.7886 15.9244 16.8953 15.792 17.0331 15.6987C17.171 15.6055 17.3336 15.5556 17.5 15.5556H19.1667C19.9333 15.5556 20.5556 14.9333 20.5556 14.1667V8.05556C20.5556 7.28889 19.9333 6.66667 19.1667 6.66667H17.5C17.3336 6.66663 17.171 6.61676 17.0331 6.52349C16.8953 6.43022 16.7886 6.29781 16.7267 6.14333L15.8244 3.88889H6.38889Z"/>
  </symbol>
  <symbol stroke="none" xmlns="http://www.w3.org/2000/svg" viewBox="0 0 20 18" id="fuel">
    <path d="M12 16H13V18H0V16H1V1C1 0.734784 1.10536 0.48043 1.29289 0.292893C1.48043 0.105357 1.73478 0 2 0H11C11.2652 0 11.5196 0.105357 11.7071 0.292893C11.8946 0.48043 12 0.734784 12 1V9H14C14.5304 9 15.0391 9.21071 15.4142 9.58579C15.7893 9.96086 16 10.4696 16 11V15C16 15.2652 16.1054 15.5196 16.2929 15.7071C16.4804 15.8946 16.7348 16 17 16C17.2652 16 17.5196 15.8946 17.7071 15.7071C17.8946 15.5196 18 15.2652 18 15V8H16C15.7348 8 15.4804 7.89464 15.2929 7.70711C15.1054 7.51957 15 7.26522 15 7V3.414L13.343 1.757L14.757 0.343L19.707 5.293C19.8 5.38574 19.8738 5.49594 19.924 5.61727C19.9743 5.7386 20.0001 5.86866 20 6V15C20 15.7956 19.6839 16.5587 19.1213 17.1213C18.5587 17.6839 17.7956 18 17 18C16.2044 18 15.4413 17.6839 14.8787 17.1213C14.3161 16.5587 14 15.7956 14 15V11H12V16ZM3 16H10V10H3V16ZM3 2V8H10V2H3Z"/>
  </symbol>
  <symbol stroke="none" xmlns="http://www.w3.org/2000/svg" viewBox="0 0 21 17" id="spedometr">
    <path d="M3 12V5.5C3 4.30653 3.47411 3.16193 4.31802 2.31802C5.16193 1.47411 6.30653 1 7.5 1C8.69347 1 9.83807 1.47411 10.682 2.31802C11.5259 3.16193 12 4.30653 12 5.5V12.5C12 13.163 12.2634 13.7989 12.7322 14.2678C13.2011 14.7366 13.837 15 14.5 15C15.163 15 15.7989 14.7366 16.2678 14.2678C16.7366 13.7989 17 13.163 17 12.5V5.83C16.3325 5.59409 15.7699 5.1298 15.4116 4.51919C15.0534 3.90858 14.9225 3.19098 15.0422 2.49321C15.1619 1.79545 15.5244 1.16246 16.0656 0.706126C16.6069 0.249797 17.292 -0.000488281 18 -0.000488281C18.708 -0.000488281 19.3931 0.249797 19.9344 0.706126C20.4756 1.16246 20.8381 1.79545 20.9578 2.49321C21.0775 3.19098 20.9466 3.90858 20.5884 4.51919C20.2301 5.1298 19.6675 5.59409 19 5.83V12.5C19 13.6935 18.5259 14.8381 17.682 15.682C16.8381 16.5259 15.6935 17 14.5 17C13.3065 17 12.1619 16.5259 11.318 15.682C10.4741 14.8381 10 13.6935 10 12.5V5.5C10 4.83696 9.73661 4.20107 9.26777 3.73223C8.79893 3.26339 8.16304 3 7.5 3C6.83696 3 6.20107 3.26339 5.73223 3.73223C5.26339 4.20107 5 4.83696 5 5.5V12H8L4 17L0 12H3ZM18 4C18.2652 4 18.5196 3.89464 18.7071 3.70711C18.8946 3.51957 19 3.26522 19 3C19 2.73478 18.8946 2.48043 18.7071 2.29289C18.5196 2.10536 18.2652 2 18 2C17.7348 2 17.4804 2.10536 17.2929 2.29289C17.1054 2.48043 17 2.73478 17 3C17 3.26522 17.1054 3.51957 17.2929 3.70711C17.4804 3.89464 17.7348 4 18 4Z"/>
  </symbol>
  <symbol stroke="none" xmlns="http://www.w3.org/2000/svg" viewBox="0 0 21 21" id="drive">
    <path d="M0 10.3618C0 9.46433 0.114132 8.59485 0.327869 7.76377C0.901085 7.7939 1.47147 7.66494 1.97597 7.39115C2.48047 7.11735 2.89944 6.70939 3.18656 6.21235C3.47368 5.71531 3.61777 5.14856 3.6029 4.57475C3.58803 4.00093 3.41478 3.4424 3.1023 2.9609C4.35665 1.7268 5.90454 0.832345 7.60012 0.361816C7.86054 0.873824 8.25756 1.30378 8.74723 1.6041C9.23691 1.90441 9.80013 2.06337 10.3746 2.06337C10.949 2.06337 11.5122 1.90441 12.0019 1.6041C12.4916 1.30378 12.8886 0.873824 13.149 0.361816C14.8446 0.832345 16.3925 1.7268 17.6468 2.9609C17.334 3.44249 17.1605 4.00123 17.1455 4.57531C17.1305 5.14939 17.2746 5.71642 17.5619 6.21367C17.8492 6.71091 18.2685 7.11899 18.7733 7.39275C19.2781 7.66651 19.8488 7.79528 20.4223 7.7648C20.636 8.59485 20.7502 9.46433 20.7502 10.3618C20.7502 11.2593 20.636 12.1288 20.4223 12.9599C19.849 12.9295 19.2785 13.0583 18.7738 13.3321C18.2691 13.6058 17.85 14.0137 17.5628 14.5108C17.2755 15.0079 17.1313 15.5747 17.1462 16.1486C17.161 16.7225 17.3343 17.2812 17.6468 17.7627C16.3925 18.9968 14.8446 19.8913 13.149 20.3618C12.8886 19.8498 12.4916 19.4198 12.0019 19.1195C11.5122 18.8192 10.949 18.6603 10.3746 18.6603C9.80013 18.6603 9.23691 18.8192 8.74723 19.1195C8.25756 19.4198 7.86054 19.8498 7.60012 20.3618C5.90454 19.8913 4.35665 18.9968 3.1023 17.7627C3.41513 17.2811 3.58864 16.7224 3.60362 16.1483C3.6186 15.5742 3.47447 15.0072 3.18719 14.51C2.8999 14.0127 2.48065 13.6046 1.97583 13.3309C1.47101 13.0571 0.900295 12.9284 0.326831 12.9588C0.114132 12.1298 0 11.2603 0 10.3618ZM4.98444 13.4745C5.6381 14.6065 5.82486 15.9086 5.56962 17.1309C5.99294 17.4317 6.44325 17.6922 6.91533 17.909C7.86643 17.057 9.09869 16.5863 10.3756 16.5872C11.6829 16.5872 12.9052 17.0759 13.8359 17.909C14.3079 17.6922 14.7582 17.4317 15.1816 17.1309C14.9195 15.8816 15.1279 14.5796 15.7668 13.4745C16.4045 12.3688 17.4279 11.5375 18.6408 11.14C18.6888 10.6223 18.6888 10.1013 18.6408 9.58365C17.4275 9.18632 16.4037 8.35499 15.7657 7.24914C15.1269 6.14406 14.9185 4.84204 15.1805 3.59278C14.7573 3.2918 14.3068 3.03127 13.8348 2.81461C12.884 3.66637 11.6521 4.13709 10.3756 4.13646C9.09869 4.13735 7.86643 3.66661 6.91533 2.81461C6.44338 3.03128 5.99283 3.29181 5.56962 3.59278C5.83167 4.84204 5.62329 6.14406 4.98444 7.24914C4.34672 8.35479 3.32329 9.1861 2.1104 9.58365C2.06241 10.1013 2.06241 10.6223 2.1104 11.14C3.32367 11.5373 4.34751 12.3686 4.98547 13.4745H4.98444ZM10.3756 13.4745C9.55006 13.4745 8.75834 13.1466 8.1746 12.5628C7.59086 11.9791 7.26292 11.1874 7.26292 10.3618C7.26292 9.53628 7.59086 8.74456 8.1746 8.16082C8.75834 7.57708 9.55006 7.24914 10.3756 7.24914C11.2011 7.24914 11.9929 7.57708 12.5766 8.16082C13.1603 8.74456 13.4883 9.53628 13.4883 10.3618C13.4883 11.1874 13.1603 11.9791 12.5766 12.5628C11.9929 13.1466 11.2011 13.4745 10.3756 13.4745ZM10.3756 11.3994C10.6508 11.3994 10.9147 11.2901 11.1093 11.0955C11.3038 10.9009 11.4132 10.637 11.4132 10.3618C11.4132 10.0866 11.3038 9.82273 11.1093 9.62815C10.9147 9.43357 10.6508 9.32426 10.3756 9.32426C10.1004 9.32426 9.83651 9.43357 9.64193 9.62815C9.44735 9.82273 9.33804 10.0866 9.33804 10.3618C9.33804 10.637 9.44735 10.9009 9.64193 11.0955C9.83651 11.2901 10.1004 11.3994 10.3756 11.3994Z"/>
  </symbol>
  <symbol stroke="none" xmlns="http://www.w3.org/2000/svg" viewBox="0 0 20 20" id="state">
    <path d="M3.463 2.43301C5.27756 0.86067 7.59899 -0.00333986 10 9.70266e-06C15.523 9.70266e-06 20 4.47701 20 10C20 12.136 19.33 14.116 18.19 15.74L15 10H18C18.0001 8.43163 17.5392 6.89781 16.6747 5.58927C15.8101 4.28072 14.5799 3.25517 13.1372 2.64013C11.6944 2.0251 10.1027 1.84771 8.55996 2.13003C7.0172 2.41234 5.59145 3.14191 4.46 4.22801L3.463 2.43301ZM16.537 17.567C14.7224 19.1393 12.401 20.0034 10 20C4.477 20 0 15.523 0 10C0 7.86401 0.67 5.88401 1.81 4.26001L5 10H2C1.99987 11.5684 2.46075 13.1022 3.32534 14.4108C4.18992 15.7193 5.42007 16.7449 6.86282 17.3599C8.30557 17.9749 9.89729 18.1523 11.44 17.87C12.9828 17.5877 14.4085 16.8581 15.54 15.772L16.537 17.567Z"/>
  </symbol>
  <symbol xmlns="http://www.w3.org/2000/svg" viewBox="0 0 45 45" id="play">
    <circle cx="22.5" cy="22.5" r="21.5" stroke-width="2" fill="none"/>
    <path d="M33.5713 21.4221L17.0805 30.5676L17.4057 11.7134L33.5713 21.4221Z" stroke="none"/>
  </symbol>
  <symbol stroke="none" xmlns="http://www.w3.org/2000/svg" viewBox="0 0 33 17" id="electric">
    <path d="M29.541 5.14667H31.1321C31.554 5.14667 31.9587 5.26334 32.2571 5.471C32.5555 5.67867 32.7231 5.96033 32.7231 6.25402V10.6834C32.7231 10.9771 32.5555 11.2587 32.2571 11.4664C31.9587 11.6741 31.554 11.7907 31.1321 11.7907H29.541V15.1128C29.541 15.4065 29.3733 15.6881 29.075 15.8958C28.7766 16.1035 28.3719 16.2201 27.9499 16.2201H2.49259C2.07061 16.2201 1.66591 16.1035 1.36752 15.8958C1.06914 15.6881 0.90151 15.4065 0.90151 15.1128V1.82463C0.90151 1.53094 1.06914 1.24929 1.36752 1.04162C1.66591 0.833952 2.07061 0.717285 2.49259 0.717285L27.9499 0.717285C28.3719 0.717285 28.7766 0.833952 29.075 1.04162C29.3733 1.24929 29.541 1.53094 29.541 1.82463V5.14667ZM16.8123 9.57605H24.7677L13.6302 4.03932V7.36136H5.67475L16.8123 12.8981V9.57605Z" fill="#BD072B"/>
  </symbol>
  <symbol stroke="none" xmlns="http://www.w3.org/2000/svg" viewBox="0 0 32 25" id="battery">
        <path d="M28.6395 6.92026H30.2306C30.6526 6.92026 31.0573 7.10253 31.3556 7.42698C31.654 7.75143 31.8217 8.19148 31.8217 8.65032V15.5706C31.8217 16.0294 31.654 16.4695 31.3556 16.7939C31.0573 17.1184 30.6526 17.3006 30.2306 17.3006H28.6395V22.4908C28.6395 22.9497 28.4719 23.3897 28.1735 23.7142C27.8751 24.0386 27.4704 24.2209 27.0484 24.2209H1.5911C1.16912 24.2209 0.76442 24.0386 0.466034 23.7142C0.167648 23.3897 2.09808e-05 22.9497 2.09808e-05 22.4908V1.73006C2.09808e-05 1.27122 0.167648 0.831175 0.466034 0.506725C0.76442 0.182275 1.16912 0 1.5911 0L27.0484 0C27.4704 0 27.8751 0.182275 28.1735 0.506725C28.4719 0.831175 28.6395 1.27122 28.6395 1.73006V6.92026ZM15.9108 13.8405H23.8662L12.7287 5.19019V10.3804H4.77326L15.9108 19.0307V13.8405Z"/>
  </symbol>
</svg>