<svg width="134" height="54" viewBox="0 0 134 54" fill="none" xmlns="http://www.w3.org/2000/svg">
<path d="M58.8809 23.7139V14.26H61.0553V23.7139H58.8809Z" fill="#333333"/>
<path d="M63.4047 23.7139V14.26H65.2145L69.2391 20.9317H68.2802L72.2374 14.26H74.0471L74.0606 23.7139H72.0078L71.9943 17.4068H72.3859L69.2121 22.7145H68.2397L64.9984 17.4068H65.4576V23.7139H63.4047Z" fill="#333333"/>
<path d="M76.4091 23.7139V14.26H85.0257V23.7139H82.8513V15.543L83.351 16.0427H78.0838L78.5835 15.543V23.7139H76.4091Z" fill="#333333"/>
<path d="M91.8936 23.876C91.1463 23.876 90.453 23.7544 89.8138 23.5113C89.1835 23.2682 88.6343 22.9261 88.1661 22.4849C87.7069 22.0437 87.3467 21.526 87.0856 20.9317C86.8335 20.3375 86.7075 19.6892 86.7075 18.9869C86.7075 18.2846 86.8335 17.6364 87.0856 17.0421C87.3467 16.4479 87.7114 15.9302 88.1796 15.489C88.6478 15.0478 89.197 14.7057 89.8273 14.4626C90.4575 14.2195 91.1418 14.0979 91.8801 14.0979C92.6274 14.0979 93.3117 14.2195 93.933 14.4626C94.5632 14.7057 95.108 15.0478 95.5671 15.489C96.0353 15.9302 96.4 16.4479 96.6611 17.0421C96.9222 17.6274 97.0528 18.2756 97.0528 18.9869C97.0528 19.6892 96.9222 20.342 96.6611 20.9452C96.4 21.5395 96.0353 22.0572 95.5671 22.4984C95.108 22.9306 94.5632 23.2682 93.933 23.5113C93.3117 23.7544 92.6319 23.876 91.8936 23.876ZM91.8801 22.0122C92.3033 22.0122 92.6904 21.9402 93.0416 21.7961C93.4017 21.652 93.7169 21.4449 93.987 21.1748C94.2571 20.9047 94.4642 20.5851 94.6082 20.2159C94.7613 19.8468 94.8378 19.4371 94.8378 18.9869C94.8378 18.5367 94.7613 18.1271 94.6082 17.7579C94.4642 17.3888 94.2571 17.0691 93.987 16.799C93.7259 16.5289 93.4152 16.3218 93.0551 16.1778C92.6949 16.0337 92.3033 15.9617 91.8801 15.9617C91.4569 15.9617 91.0653 16.0337 90.7051 16.1778C90.354 16.3218 90.0434 16.5289 89.7732 16.799C89.5031 17.0691 89.2915 17.3888 89.1385 17.7579C88.9944 18.1271 88.9224 18.5367 88.9224 18.9869C88.9224 19.4281 88.9944 19.8378 89.1385 20.2159C89.2915 20.5851 89.4986 20.9047 89.7597 21.1748C90.0298 21.4449 90.345 21.652 90.7051 21.7961C91.0653 21.9402 91.4569 22.0122 91.8801 22.0122Z" fill="#333333"/>
<path d="M98.7382 23.7139V14.26H102.83C103.677 14.26 104.406 14.3995 105.018 14.6786C105.631 14.9488 106.103 15.3404 106.436 15.8536C106.77 16.3668 106.936 16.9791 106.936 17.6904C106.936 18.3927 106.77 19.0004 106.436 19.5136C106.103 20.0269 105.631 20.423 105.018 20.7021C104.406 20.9723 103.677 21.1073 102.83 21.1073H99.9537L100.926 20.1214V23.7139H98.7382ZM100.926 20.3645L99.9537 19.3246H102.709C103.384 19.3246 103.888 19.1805 104.221 18.8924C104.555 18.6043 104.721 18.2036 104.721 17.6904C104.721 17.1682 104.555 16.763 104.221 16.4749C103.888 16.1868 103.384 16.0427 102.709 16.0427H99.9537L100.926 15.0028V20.3645Z" fill="#333333"/>
<path d="M110.155 23.7139V15.543L110.655 16.0427H107.143V14.26H115.341V16.0427H111.83L112.316 15.543V23.7139H110.155Z" fill="#333333"/>
<path d="M118.727 18.0685H123.279V19.7703H118.727V18.0685ZM118.889 21.9582H124.035V23.7139H116.715V14.26H123.859V16.0157H118.889V21.9582Z" fill="#333333"/>
<path d="M125.802 23.7139V14.26H129.894C130.741 14.26 131.47 14.3995 132.082 14.6786C132.695 14.9488 133.167 15.3404 133.5 15.8536C133.834 16.3668 134 16.9791 134 17.6904C134 18.3927 133.834 19.0004 133.5 19.5136C133.167 20.0269 132.695 20.423 132.082 20.7021C131.47 20.9723 130.741 21.1073 129.894 21.1073H127.018L127.99 20.1214V23.7139H125.802ZM127.99 20.3645L127.018 19.3246H129.773C130.448 19.3246 130.952 19.1805 131.285 18.8924C131.619 18.6043 131.785 18.2036 131.785 17.6904C131.785 17.1682 131.619 16.763 131.285 16.4749C130.952 16.1868 130.448 16.0427 129.773 16.0427H127.018L127.99 15.0028V20.3645Z" fill="#333333"/>
<path d="M53.1016 26.5508C53.1016 41.2144 41.2144 53.1016 26.5508 53.1016C11.8872 53.1016 0 41.2144 0 26.5508C0 11.8872 11.8872 0 26.5508 0C41.2144 0 53.1016 11.8872 53.1016 26.5508Z" fill="#CB0505"/>
<path d="M10.2773 25.7043V14.1018H15.946C17.4046 14.1018 18.4986 14.3781 19.2279 14.9306C19.9682 15.4831 20.3384 16.2124 20.3384 17.1185C20.3384 17.7262 20.1892 18.2566 19.8909 18.7097C19.5925 19.1517 19.1837 19.4942 18.6643 19.7373C18.145 19.9804 17.5483 20.102 16.8742 20.102L17.1891 19.4224C17.9184 19.4224 18.5649 19.544 19.1284 19.7871C19.692 20.0191 20.1285 20.3672 20.4379 20.8313C20.7583 21.2954 20.9185 21.8645 20.9185 22.5385C20.9185 23.533 20.5263 24.312 19.7417 24.8756C18.9571 25.4281 17.8024 25.7043 16.2775 25.7043H10.2773ZM12.9459 23.6822H16.0786C16.7748 23.6822 17.2996 23.5717 17.6532 23.3507C18.0179 23.1186 18.2002 22.754 18.2002 22.2567C18.2002 21.7705 18.0179 21.4114 17.6532 21.1794C17.2996 20.9363 16.7748 20.8147 16.0786 20.8147H12.747V18.8588H15.6145C16.2665 18.8588 16.7637 18.7483 17.1063 18.5273C17.4599 18.2953 17.6367 17.9472 17.6367 17.4831C17.6367 17.0301 17.4599 16.693 17.1063 16.472C16.7637 16.24 16.2665 16.124 15.6145 16.124H12.9459V23.6822Z" fill="white"/>
<path d="M25.2554 18.776H30.8412V20.8644H25.2554V18.776ZM25.4543 23.5496H31.7694V25.7043H22.7857V14.1018H31.5539V16.2566H25.4543V23.5496Z" fill="white"/>
<path d="M32.3008 25.7043L37.2899 18.8257V20.7816L32.5163 14.1018H35.5661L38.8645 18.7594L37.5882 18.776L40.837 14.1018H43.7542L39.0137 20.6655V18.7428L44.0359 25.7043H40.9364L37.5219 20.7816H38.7485L35.3838 25.7043H32.3008Z" fill="white"/>
<path d="M9.10352 39.5169L12.7427 31.3521H14.6089L18.2597 39.5169H16.2768L13.2909 32.3086H14.0374L11.0397 39.5169H9.10352ZM10.9231 37.7673L11.4246 36.3326H15.6237L16.1369 37.7673H10.9231Z" fill="white"/>
<path d="M22.5634 39.6568C21.4048 39.6568 20.4989 39.3341 19.8457 38.6887C19.1925 38.0433 18.866 37.1219 18.866 35.9244V31.3521H20.7555V35.8544C20.7555 36.632 20.9149 37.1919 21.2337 37.534C21.5525 37.8761 21.9997 38.0472 22.5751 38.0472C23.1505 38.0472 23.5976 37.8761 23.9164 37.534C24.2352 37.1919 24.3947 36.632 24.3947 35.8544V31.3521H26.2609V35.9244C26.2609 37.1219 25.9343 38.0433 25.2811 38.6887C24.6279 39.3341 23.722 39.6568 22.5634 39.6568Z" fill="white"/>
<path d="M29.6827 39.5169V32.8918H27.07V31.3521H34.185V32.8918H31.5723V39.5169H29.6827Z" fill="white"/>
<path d="M39.0535 39.6568C38.4081 39.6568 37.8093 39.5519 37.2572 39.3419C36.7129 39.132 36.2386 38.8365 35.8342 38.4555C35.4377 38.0744 35.1266 37.6273 34.9011 37.1141C34.6834 36.6009 34.5745 36.041 34.5745 35.4345C34.5745 34.828 34.6834 34.2681 34.9011 33.7549C35.1266 33.2417 35.4415 32.7946 35.8459 32.4135C36.2502 32.0325 36.7246 31.737 37.2689 31.5271C37.8132 31.3171 38.4042 31.2122 39.0418 31.2122C39.6872 31.2122 40.2782 31.3171 40.8147 31.5271C41.359 31.737 41.8295 32.0325 42.2261 32.4135C42.6304 32.7946 42.9453 33.2417 43.1708 33.7549C43.3963 34.2603 43.5091 34.8202 43.5091 35.4345C43.5091 36.041 43.3963 36.6048 43.1708 37.1258C42.9453 37.639 42.6304 38.0861 42.2261 38.4671C41.8295 38.8404 41.359 39.132 40.8147 39.3419C40.2782 39.5519 39.6911 39.6568 39.0535 39.6568ZM39.0418 38.0472C39.4073 38.0472 39.7417 37.985 40.0449 37.8606C40.356 37.7362 40.6281 37.5573 40.8614 37.3241C41.0947 37.0908 41.2735 36.8147 41.3979 36.4959C41.5301 36.1771 41.5962 35.8233 41.5962 35.4345C41.5962 35.0457 41.5301 34.6919 41.3979 34.3731C41.2735 34.0543 41.0947 33.7782 40.8614 33.5449C40.6359 33.3117 40.3676 33.1328 40.0566 33.0084C39.7455 32.884 39.4073 32.8218 39.0418 32.8218C38.6763 32.8218 38.3381 32.884 38.0271 33.0084C37.7238 33.1328 37.4555 33.3117 37.2222 33.5449C36.989 33.7782 36.8062 34.0543 36.674 34.3731C36.5496 34.6919 36.4874 35.0457 36.4874 35.4345C36.4874 35.8155 36.5496 36.1693 36.674 36.4959C36.8062 36.8147 36.9851 37.0908 37.2106 37.3241C37.4439 37.5573 37.716 37.7362 38.0271 37.8606C38.3381 37.985 38.6763 38.0472 39.0418 38.0472Z" fill="white"/>
<path d="M57.8911 39.6751L62.1049 30.2211H64.2658L68.493 39.6751H66.1971L62.7396 31.3286H63.604L60.133 39.6751H57.8911ZM59.998 37.6492L60.5787 35.988H65.4407L66.035 37.6492H59.998Z" fill="#333333"/>
<path d="M69.5279 39.6751V30.2211H73.9307C75.0292 30.2211 75.8845 30.4327 76.4968 30.8559C77.109 31.2791 77.4151 31.8823 77.4151 32.6657C77.4151 33.44 77.127 34.0432 76.5508 34.4754C75.9746 34.8986 75.2092 35.1102 74.2548 35.1102L74.5114 34.5429C75.5739 34.5429 76.3977 34.7545 76.983 35.1777C77.5682 35.6009 77.8608 36.2131 77.8608 37.0145C77.8608 37.8428 77.5457 38.4956 76.9154 38.9728C76.2942 39.441 75.3848 39.6751 74.1873 39.6751H69.5279ZM71.7023 38.0544H74.1063C74.6105 38.0544 74.9931 37.9554 75.2543 37.7573C75.5154 37.5592 75.6459 37.2531 75.6459 36.8389C75.6459 36.4427 75.5154 36.1501 75.2543 35.961C74.9931 35.7629 74.6105 35.6639 74.1063 35.6639H71.7023V38.0544ZM71.7023 34.1378H73.7416C74.2188 34.1378 74.579 34.0432 74.8221 33.8542C75.0652 33.6561 75.1867 33.368 75.1867 32.9898C75.1867 32.6116 75.0652 32.328 74.8221 32.1389C74.579 31.9409 74.2188 31.8418 73.7416 31.8418H71.7023V34.1378Z" fill="#333333"/>
<path d="M81.4986 39.6751V31.5042L81.9983 32.0039H78.4868V30.2211H86.6847V32.0039H83.1733L83.6595 31.5042V39.6751H81.4986Z" fill="#333333"/>
<path d="M92.451 39.8371C91.7037 39.8371 91.0104 39.7156 90.3711 39.4725C89.7409 39.2294 89.1916 38.8872 88.7235 38.4461C88.2643 38.0049 87.9041 37.4872 87.643 36.8929C87.3909 36.2987 87.2648 35.6504 87.2648 34.9481C87.2648 34.2458 87.3909 33.5975 87.643 33.0033C87.9041 32.4091 88.2688 31.8913 88.737 31.4502C89.2052 31.009 89.7544 30.6668 90.3846 30.4237C91.0149 30.1806 91.6992 30.0591 92.4375 30.0591C93.1848 30.0591 93.8691 30.1806 94.4903 30.4237C95.1206 30.6668 95.6653 31.009 96.1245 31.4502C96.5927 31.8913 96.9574 32.4091 97.2185 33.0033C97.4796 33.5885 97.6101 34.2368 97.6101 34.9481C97.6101 35.6504 97.4796 36.3032 97.2185 36.9064C96.9574 37.5007 96.5927 38.0184 96.1245 38.4596C95.6653 38.8917 95.1206 39.2294 94.4903 39.4725C93.8691 39.7156 93.1893 39.8371 92.451 39.8371ZM92.4375 37.9734C92.8607 37.9734 93.2478 37.9013 93.599 37.7573C93.9591 37.6132 94.2743 37.4061 94.5444 37.136C94.8145 36.8659 95.0216 36.5463 95.1656 36.1771C95.3187 35.808 95.3952 35.3983 95.3952 34.9481C95.3952 34.4979 95.3187 34.0883 95.1656 33.7191C95.0216 33.3499 94.8145 33.0303 94.5444 32.7602C94.2833 32.4901 93.9726 32.283 93.6125 32.1389C93.2523 31.9949 92.8607 31.9229 92.4375 31.9229C92.0143 31.9229 91.6227 31.9949 91.2625 32.1389C90.9114 32.283 90.6007 32.4901 90.3306 32.7602C90.0605 33.0303 89.8489 33.3499 89.6959 33.7191C89.5518 34.0883 89.4798 34.4979 89.4798 34.9481C89.4798 35.3893 89.5518 35.799 89.6959 36.1771C89.8489 36.5463 90.056 36.8659 90.3171 37.136C90.5872 37.4061 90.9024 37.6132 91.2625 37.7573C91.6227 37.9013 92.0143 37.9734 92.4375 37.9734Z" fill="#333333"/>
<path d="M103.066 39.6751V30.2211H104.876L110.454 37.028H109.576V30.2211H111.737V39.6751H109.941L104.349 32.8682H105.227V39.6751H103.066ZM112.993 36.7444V35.4613H117.558V36.7444H112.993ZM115.275 34.57C114.78 34.57 114.339 34.4754 113.952 34.2863C113.574 34.0973 113.272 33.8316 113.047 33.4895C112.831 33.1474 112.723 32.7602 112.723 32.328C112.723 31.8958 112.831 31.5132 113.047 31.18C113.272 30.8469 113.574 30.5858 113.952 30.3967C114.339 30.2076 114.78 30.1131 115.275 30.1131C115.78 30.1131 116.221 30.2076 116.599 30.3967C116.986 30.5858 117.288 30.8469 117.504 31.18C117.72 31.5132 117.828 31.9003 117.828 32.3415C117.828 32.7647 117.715 33.1474 117.49 33.4895C117.274 33.8226 116.977 34.0883 116.599 34.2863C116.221 34.4754 115.78 34.57 115.275 34.57ZM115.275 33.449C115.609 33.449 115.879 33.3499 116.086 33.1519C116.293 32.9448 116.396 32.6702 116.396 32.328C116.396 31.9859 116.293 31.7203 116.086 31.5312C115.879 31.3331 115.609 31.2341 115.275 31.2341C114.942 31.2341 114.668 31.3331 114.452 31.5312C114.245 31.7203 114.141 31.9904 114.141 32.3415C114.141 32.6747 114.245 32.9448 114.452 33.1519C114.668 33.3499 114.942 33.449 115.275 33.449Z" fill="#333333"/>
<path d="M120.694 39.6751V31.0315L121.639 31.9769H118.803V30.2211H122.882V39.6751H120.694Z" fill="#333333"/>
</svg>
