<svg width="134" height="54" viewBox="0 0 134 54" fill="none" xmlns="http://www.w3.org/2000/svg">
<path d="M56.1401 24.6566V15.6428H58.2133V21.5147L62.5142 15.6428H64.4715V24.6566H62.4112V18.7976L58.1103 24.6566H56.1401Z" fill="#333333"/>
<path d="M66.7158 24.6566V15.6428H68.4414L72.2787 22.004H71.3644L75.1374 15.6428H76.8629L76.8758 24.6566H74.9185L74.9056 18.6431H75.279L72.2529 23.7038H71.3258L68.2353 18.6431H68.6731V24.6566H66.7158Z" fill="#333333"/>
<path d="M79.115 24.6566V15.6428H87.3305V24.6566H85.2573V16.8661L85.7337 17.3425H80.7117L81.1881 16.8661V24.6566H79.115Z" fill="#333333"/>
<path d="M93.8787 24.8112C93.1662 24.8112 92.5051 24.6953 91.8956 24.4635C91.2947 24.2317 90.7711 23.9055 90.3246 23.4848C89.8868 23.0642 89.5434 22.5706 89.2945 22.004C89.0541 21.4374 88.9339 20.8193 88.9339 20.1497C88.9339 19.4801 89.0541 18.862 89.2945 18.2954C89.5434 17.7288 89.8911 17.2352 90.3375 16.8146C90.7839 16.3939 91.3076 16.0677 91.9085 15.8359C92.5094 15.6041 93.1619 15.4883 93.8658 15.4883C94.5783 15.4883 95.2308 15.6041 95.8231 15.8359C96.424 16.0677 96.9434 16.3939 97.3812 16.8146C97.8276 17.2352 98.1753 17.7288 98.4243 18.2954C98.6732 18.8534 98.7977 19.4715 98.7977 20.1497C98.7977 20.8193 98.6732 21.4417 98.4243 22.0169C98.1753 22.5835 97.8276 23.0771 97.3812 23.4977C96.9434 23.9098 96.424 24.2317 95.8231 24.4635C95.2308 24.6953 94.5826 24.8112 93.8787 24.8112ZM93.8658 23.0342C94.2693 23.0342 94.6384 22.9655 94.9732 22.8281C95.3166 22.6908 95.6171 22.4933 95.8746 22.2358C96.1322 21.9782 96.3296 21.6735 96.467 21.3215C96.6129 20.9695 96.6859 20.5789 96.6859 20.1497C96.6859 19.7205 96.6129 19.3299 96.467 18.9779C96.3296 18.6259 96.1322 18.3212 95.8746 18.0636C95.6257 17.8061 95.3295 17.6087 94.9861 17.4713C94.6427 17.3339 94.2693 17.2653 93.8658 17.2653C93.4623 17.2653 93.0889 17.3339 92.7455 17.4713C92.4107 17.6087 92.1145 17.8061 91.857 18.0636C91.5995 18.3212 91.3977 18.6259 91.2518 18.9779C91.1144 19.3299 91.0458 19.7205 91.0458 20.1497C91.0458 20.5704 91.1144 20.961 91.2518 21.3215C91.3977 21.6735 91.5952 21.9782 91.8441 22.2358C92.1017 22.4933 92.4021 22.6908 92.7455 22.8281C93.0889 22.9655 93.4623 23.0342 93.8658 23.0342Z" fill="#333333"/>
<path d="M100.405 24.6566V15.6428H104.306C105.113 15.6428 105.809 15.7758 106.392 16.042C106.976 16.2995 107.427 16.6729 107.745 17.1623C108.062 17.6516 108.221 18.2353 108.221 18.9135C108.221 19.5831 108.062 20.1626 107.745 20.6519C107.427 21.1412 106.976 21.519 106.392 21.7851C105.809 22.0426 105.113 22.1714 104.306 22.1714H101.564L102.491 21.2314V24.6566H100.405ZM102.491 21.4632L101.564 20.4716H104.191C104.834 20.4716 105.315 20.3343 105.633 20.0596C105.95 19.7849 106.109 19.4028 106.109 18.9135C106.109 18.4156 105.95 18.0293 105.633 17.7546C105.315 17.4799 104.834 17.3425 104.191 17.3425H101.564L102.491 16.351V21.4632Z" fill="#333333"/>
<path d="M111.29 24.6566V16.8661L111.767 17.3425H108.418V15.6428H116.235V17.3425H112.887L113.35 16.8661V24.6566H111.29Z" fill="#333333"/>
<path d="M119.412 19.2741H123.751V20.8966H119.412V19.2741ZM119.566 22.9826H124.472V24.6566H117.493V15.6428H124.305V17.3168H119.566V22.9826ZM122.206 14.8444C121.957 14.8444 121.747 14.7628 121.575 14.5997C121.403 14.4366 121.318 14.222 121.318 13.9559C121.318 13.6898 121.403 13.4752 121.575 13.312C121.747 13.1489 121.957 13.0674 122.206 13.0674C122.455 13.0674 122.665 13.1489 122.837 13.312C123.017 13.4752 123.107 13.6898 123.107 13.9559C123.107 14.222 123.017 14.4366 122.837 14.5997C122.665 14.7628 122.455 14.8444 122.206 14.8444ZM119.605 14.8444C119.356 14.8444 119.141 14.7628 118.961 14.5997C118.789 14.4366 118.704 14.222 118.704 13.9559C118.704 13.6898 118.789 13.4752 118.961 13.312C119.141 13.1489 119.356 13.0674 119.605 13.0674C119.854 13.0674 120.064 13.1489 120.236 13.312C120.408 13.4752 120.493 13.6898 120.493 13.9559C120.493 14.222 120.408 14.4366 120.236 14.5997C120.064 14.7628 119.854 14.8444 119.605 14.8444Z" fill="#333333"/>
<path d="M126.184 24.6566V15.6428H130.085C130.892 15.6428 131.588 15.7758 132.172 16.042C132.755 16.2995 133.206 16.6729 133.524 17.1623C133.841 17.6516 134 18.2353 134 18.9135C134 19.5831 133.841 20.1626 133.524 20.6519C133.206 21.1412 132.755 21.519 132.172 21.7851C131.588 22.0426 130.892 22.1714 130.085 22.1714H127.343L128.27 21.2314V24.6566H126.184ZM128.27 21.4632L127.343 20.4716H129.97C130.613 20.4716 131.094 20.3343 131.412 20.0596C131.729 19.7849 131.888 19.4028 131.888 18.9135C131.888 18.4156 131.729 18.0293 131.412 17.7546C131.094 17.4799 130.613 17.3425 129.97 17.3425H127.343L128.27 16.351V21.4632Z" fill="#333333"/>
<circle cx="25.3149" cy="27.3149" r="25.3149" fill="#CB0505"/>
<path d="M9.79883 26.4612V15.3987H15.2036C16.5944 15.3987 17.6374 15.6621 18.3327 16.1889C19.0386 16.7156 19.3916 17.411 19.3916 18.2749C19.3916 18.8544 19.2493 19.3601 18.9649 19.7921C18.6804 20.2135 18.2906 20.5401 17.7954 20.7719C17.3002 21.0037 16.7313 21.1196 16.0886 21.1196L16.3889 20.4716C17.0843 20.4716 17.7006 20.5875 18.2379 20.8193C18.7752 21.0405 19.1914 21.3724 19.4864 21.8149C19.7919 22.2574 19.9447 22.8 19.9447 23.4427C19.9447 24.3909 19.5707 25.1337 18.8227 25.671C18.0746 26.1978 16.9736 26.4612 15.5197 26.4612H9.79883ZM12.3432 24.5331H15.3301C15.9938 24.5331 16.4943 24.4278 16.8314 24.2171C17.1791 23.9958 17.3529 23.6481 17.3529 23.174C17.3529 22.7105 17.1791 22.368 16.8314 22.1468C16.4943 21.915 15.9938 21.7991 15.3301 21.7991H12.1536V19.9343H14.8876C15.5092 19.9343 15.9833 19.8289 16.3099 19.6182C16.647 19.397 16.8156 19.0651 16.8156 18.6226C16.8156 18.1906 16.647 17.8693 16.3099 17.6586C15.9833 17.4373 15.5092 17.3267 14.8876 17.3267H12.3432V24.5331Z" fill="white"/>
<path d="M24.0797 19.8553H29.4055V21.8465H24.0797V19.8553ZM24.2693 24.4067H30.2905V26.4612H21.7249V15.3987H30.085V17.4531H24.2693V24.4067Z" fill="white"/>
<path d="M30.7972 26.4612L35.554 19.9027V21.7675L31.0026 15.3987H33.9105L37.0554 19.8395L35.8385 19.8553L38.936 15.3987H41.7174L37.1976 21.6569V19.8237L41.9861 26.4612H39.0308L35.7753 21.7675H36.9447L33.7366 26.4612H30.7972Z" fill="white"/>
<path d="M8.67969 39.6308L12.1494 31.8461H13.9288L17.4097 39.6308H15.5191L12.6721 32.758H13.3839L10.5258 39.6308H8.67969ZM10.4146 37.9627L10.8928 36.5948H14.8963L15.3857 37.9627H10.4146Z" fill="white"/>
<path d="M21.5131 39.7643C20.4084 39.7643 19.5447 39.4566 18.9219 38.8412C18.2991 38.2259 17.9877 37.3473 17.9877 36.2055V31.8461H19.7893V36.1388C19.7893 36.8802 19.9413 37.414 20.2453 37.7402C20.5493 38.0665 20.9756 38.2296 21.5242 38.2296C22.0728 38.2296 22.4991 38.0665 22.8031 37.7402C23.1071 37.414 23.2591 36.8802 23.2591 36.1388V31.8461H25.0384V36.2055C25.0384 37.3473 24.727 38.2259 24.1043 38.8412C23.4815 39.4566 22.6178 39.7643 21.5131 39.7643Z" fill="white"/>
<path d="M28.301 39.6308V33.3141H25.8099V31.8461H32.5937V33.3141H30.1026V39.6308H28.301Z" fill="white"/>
<path d="M37.2356 39.7643C36.6202 39.7643 36.0493 39.6642 35.5229 39.464C35.004 39.2638 34.5517 38.9821 34.1662 38.6188C33.7881 38.2555 33.4915 37.8292 33.2765 37.3399C33.0689 36.8506 32.9651 36.3167 32.9651 35.7385C32.9651 35.1602 33.0689 34.6264 33.2765 34.137C33.4915 33.6477 33.7918 33.2214 34.1773 32.8581C34.5628 32.4948 35.0151 32.2131 35.5341 32.0129C36.053 31.8127 36.6165 31.7126 37.2245 31.7126C37.8398 31.7126 38.4033 31.8127 38.9149 32.0129C39.4338 32.2131 39.8824 32.4948 40.2605 32.8581C40.646 33.2214 40.9463 33.6477 41.1613 34.137C41.3763 34.6189 41.4838 35.1527 41.4838 35.7385C41.4838 36.3167 41.3763 36.8543 41.1613 37.351C40.9463 37.8403 40.646 38.2666 40.2605 38.6299C39.8824 38.9858 39.4338 39.2638 38.9149 39.464C38.4033 39.6642 37.8435 39.7643 37.2356 39.7643ZM37.2245 38.2296C37.5729 38.2296 37.8917 38.1702 38.1809 38.0516C38.4774 37.933 38.7369 37.7625 38.9593 37.5401C39.1818 37.3176 39.3523 37.0544 39.4709 36.7505C39.5969 36.4465 39.66 36.1092 39.66 35.7385C39.66 35.3678 39.5969 35.0304 39.4709 34.7264C39.3523 34.4225 39.1818 34.1593 38.9593 33.9368C38.7443 33.7144 38.4886 33.5439 38.192 33.4253C37.8954 33.3067 37.5729 33.2473 37.2245 33.2473C36.876 33.2473 36.5535 33.3067 36.2569 33.4253C35.9678 33.5439 35.712 33.7144 35.4896 33.9368C35.2672 34.1593 35.0929 34.4225 34.9669 34.7264C34.8483 35.0304 34.789 35.3678 34.789 35.7385C34.789 36.1017 34.8483 36.4391 34.9669 36.7505C35.0929 37.0544 35.2635 37.3176 35.4785 37.5401C35.7009 37.7625 35.9604 37.933 36.2569 38.0516C36.5535 38.1702 36.876 38.2296 37.2245 38.2296Z" fill="white"/>
<path d="M55.1963 39.8749L59.2139 30.8611H61.2742L65.3047 39.8749H63.1156L59.8191 31.917H60.6432L57.3339 39.8749H55.1963ZM57.2051 37.9434L57.7588 36.3595H62.3945L62.9611 37.9434H57.2051Z" fill="#333333"/>
<path d="M66.2914 39.8749V30.8611H70.4893C71.5366 30.8611 72.3522 31.0628 72.9359 31.4663C73.5197 31.8698 73.8116 32.4449 73.8116 33.1918C73.8116 33.9301 73.5368 34.5052 72.9874 34.9173C72.438 35.3208 71.7083 35.5225 70.7983 35.5225L71.043 34.9817C72.056 34.9817 72.8415 35.1834 73.3995 35.5869C73.9575 35.9904 74.2365 36.5741 74.2365 37.3382C74.2365 38.128 73.936 38.7504 73.3351 39.2053C72.7428 39.6517 71.8757 39.8749 70.734 39.8749H66.2914ZM68.3646 38.3297H70.6567C71.1374 38.3297 71.5023 38.2353 71.7512 38.0464C72.0002 37.8576 72.1247 37.5657 72.1247 37.1708C72.1247 36.7931 72.0002 36.5141 71.7512 36.3338C71.5023 36.1449 71.1374 36.0505 70.6567 36.0505H68.3646V38.3297ZM68.3646 34.5954H70.309C70.764 34.5954 71.1074 34.5052 71.3392 34.325C71.571 34.1361 71.6869 33.8614 71.6869 33.5008C71.6869 33.1403 71.571 32.8699 71.3392 32.6896C71.1074 32.5007 70.764 32.4063 70.309 32.4063H68.3646V34.5954Z" fill="#333333"/>
<path d="M77.7049 39.8749V32.0844L78.1814 32.5608H74.8334V30.8611H82.6497V32.5608H79.3017L79.7652 32.0844V39.8749H77.7049Z" fill="#333333"/>
<path d="M88.1475 40.0295C87.435 40.0295 86.774 39.9136 86.1645 39.6818C85.5636 39.45 85.0399 39.1238 84.5935 38.7031C84.1557 38.2825 83.8123 37.7889 83.5633 37.2223C83.323 36.6557 83.2028 36.0376 83.2028 35.368C83.2028 34.6984 83.323 34.0803 83.5633 33.5137C83.8123 32.9471 84.16 32.4535 84.6064 32.0329C85.0528 31.6122 85.5764 31.286 86.1774 31.0542C86.7783 30.8224 87.4307 30.7065 88.1347 30.7065C88.8472 30.7065 89.4996 30.8224 90.092 31.0542C90.6929 31.286 91.2123 31.6122 91.6501 32.0329C92.0965 32.4535 92.4441 32.9471 92.6931 33.5137C92.9421 34.0717 93.0665 34.6898 93.0665 35.368C93.0665 36.0376 92.9421 36.66 92.6931 37.2352C92.4441 37.8018 92.0965 38.2954 91.6501 38.716C91.2123 39.1281 90.6929 39.45 90.092 39.6818C89.4996 39.9136 88.8515 40.0295 88.1475 40.0295ZM88.1347 38.2524C88.5381 38.2524 88.9073 38.1838 89.2421 38.0464C89.5855 37.9091 89.8859 37.7116 90.1435 37.4541C90.401 37.1965 90.5985 36.8918 90.7358 36.5398C90.8817 36.1878 90.9547 35.7972 90.9547 35.368C90.9547 34.9388 90.8817 34.5482 90.7358 34.1962C90.5985 33.8442 90.401 33.5395 90.1435 33.2819C89.8945 33.0244 89.5983 32.8269 89.255 32.6896C88.9116 32.5522 88.5381 32.4836 88.1347 32.4836C87.7312 32.4836 87.3577 32.5522 87.0144 32.6896C86.6796 32.8269 86.3834 33.0244 86.1259 33.2819C85.8683 33.5395 85.6666 33.8442 85.5206 34.1962C85.3833 34.5482 85.3146 34.9388 85.3146 35.368C85.3146 35.7887 85.3833 36.1793 85.5206 36.5398C85.6666 36.8918 85.864 37.1965 86.113 37.4541C86.3705 37.7116 86.671 37.9091 87.0144 38.0464C87.3577 38.1838 87.7312 38.2524 88.1347 38.2524Z" fill="#333333"/>
<path d="M98.2688 39.8749V30.8611H99.9943L105.313 37.3511H104.476V30.8611H106.536V39.8749H104.823L99.4921 33.385H100.329V39.8749H98.2688ZM107.733 37.0806V35.8573H112.086V37.0806H107.733ZM109.91 35.0074C109.437 35.0074 109.017 34.9173 108.648 34.737C108.287 34.5568 108 34.3035 107.785 33.9773C107.579 33.6511 107.476 33.2819 107.476 32.8699C107.476 32.4578 107.579 32.093 107.785 31.7753C108 31.4577 108.287 31.2087 108.648 31.0285C109.017 30.8482 109.437 30.7581 109.91 30.7581C110.39 30.7581 110.811 30.8482 111.172 31.0285C111.541 31.2087 111.828 31.4577 112.034 31.7753C112.24 32.093 112.343 32.4621 112.343 32.8827C112.343 33.2862 112.236 33.6511 112.021 33.9773C111.815 34.2949 111.532 34.5482 111.172 34.737C110.811 34.9173 110.39 35.0074 109.91 35.0074ZM109.91 33.9387C110.227 33.9387 110.485 33.8442 110.682 33.6554C110.88 33.4579 110.978 33.1961 110.978 32.8699C110.978 32.5437 110.88 32.2904 110.682 32.1101C110.485 31.9213 110.227 31.8268 109.91 31.8268C109.592 31.8268 109.33 31.9213 109.124 32.1101C108.927 32.2904 108.828 32.5479 108.828 32.8827C108.828 33.2004 108.927 33.4579 109.124 33.6554C109.33 33.8442 109.592 33.9387 109.91 33.9387Z" fill="#333333"/>
<path d="M115.076 39.8749V31.6337L115.977 32.5351H113.273V30.8611H117.162V39.8749H115.076Z" fill="#333333"/>
</svg>
