<svg width="134" height="59" viewBox="0 0 134 59" fill="none" xmlns="http://www.w3.org/2000/svg">
<circle cx="29.8817" cy="29.8817" r="26.6293" fill="#E53934"/>
<path fill-rule="evenodd" clip-rule="evenodd" d="M29.5 3.20089C14.9754 3.20089 3.20089 14.9754 3.20089 29.5C3.20089 44.0246 14.9754 55.7991 29.5 55.7991C44.0246 55.7991 55.7991 44.0246 55.7991 29.5C55.7991 14.9754 44.0246 3.20089 29.5 3.20089ZM0 29.5C0 13.2076 13.2076 0 29.5 0C45.7924 0 59 13.2076 59 29.5C59 45.7924 45.7924 59 29.5 59C13.2076 59 0 45.7924 0 29.5Z" fill="white"/>
<path d="M9.73309 32.9424C9.59345 32.9424 9.4678 32.8969 9.35608 32.8063C9.25834 32.7032 9.20947 32.5866 9.20947 32.457V19.8402C9.20947 19.6979 9.25834 19.5814 9.35608 19.4909C9.4678 19.4003 9.59345 19.355 9.73309 19.355H16.1211C17.8804 19.355 19.1859 19.6914 20.0377 20.3644C20.9034 21.0243 21.3362 21.9689 21.3362 23.1983C21.3362 23.8453 21.1547 24.3953 20.7916 24.8482C20.4425 25.2882 20.0446 25.6117 19.5978 25.8187C20.1703 26.0646 20.652 26.4593 21.043 27.0028C21.4339 27.5463 21.6294 28.1545 21.6294 28.8274C21.6294 30.1214 21.1687 31.1308 20.2471 31.8554C19.3255 32.5801 18.013 32.9424 16.3096 32.9424H9.73309ZM15.7022 24.7511C16.2607 24.7511 16.6866 24.6218 16.9798 24.3629C17.273 24.0912 17.4196 23.7353 17.4196 23.2953C17.4196 22.8683 17.273 22.5254 16.9798 22.2666C16.6866 22.0078 16.2607 21.8783 15.7022 21.8783H12.9794V24.7511H15.7022ZM15.8907 30.4191C16.4632 30.4191 16.91 30.2638 17.2311 29.9532C17.5523 29.6426 17.7128 29.2674 17.7128 28.8274C17.7128 28.3615 17.5523 27.9798 17.2311 27.6822C16.91 27.3716 16.4632 27.2163 15.8907 27.2163H12.9794V30.4191H15.8907Z" fill="white"/>
<path d="M24.4789 32.9424C24.3393 32.9424 24.2136 32.8969 24.102 32.8063C24.0042 32.7032 23.9553 32.5866 23.9553 32.457V19.8402C23.9553 19.6979 24.0042 19.5814 24.102 19.4909C24.2136 19.4003 24.3393 19.355 24.4789 19.355H34.2599C34.4135 19.355 34.5392 19.4003 34.6369 19.4909C34.7347 19.5814 34.7835 19.6979 34.7835 19.8402V21.6648C34.7835 21.7943 34.7347 21.9107 34.6369 22.0142C34.5392 22.1048 34.4135 22.1501 34.2599 22.1501H27.5787V24.7705H33.7991C33.9528 24.7705 34.0784 24.8223 34.1761 24.9258C34.2739 25.0164 34.3228 25.1329 34.3228 25.2752V26.9639C34.3228 27.0934 34.2739 27.2098 34.1761 27.3133C34.0784 27.4039 33.9528 27.4492 33.7991 27.4492H27.5787V30.1473H34.4275C34.5811 30.1473 34.7067 30.1926 34.8045 30.2832C34.9022 30.3738 34.9511 30.4902 34.9511 30.6326V32.457C34.9511 32.5866 34.9022 32.7032 34.8045 32.8063C34.7067 32.8969 34.5811 32.9424 34.4275 32.9424H24.4789Z" fill="white"/>
<path d="M36.5572 32.9424C36.4315 32.9424 36.3199 32.9034 36.2221 32.8258C36.1383 32.7352 36.0964 32.6382 36.0964 32.5346C36.0964 32.444 36.1244 32.3664 36.1802 32.3018L40.7461 26.0128L36.5153 19.9955C36.4734 19.9179 36.4525 19.8402 36.4525 19.7626C36.4525 19.6591 36.4944 19.5685 36.5782 19.4909C36.662 19.4003 36.7667 19.355 36.8923 19.355H39.9293C40.0968 19.355 40.2364 19.3938 40.3481 19.4714C40.4598 19.5491 40.5645 19.6461 40.6623 19.7626L43.1546 23.2759L45.6891 19.7626C45.8702 19.4909 46.1146 19.355 46.4221 19.355H49.3124C49.4239 19.355 49.5219 19.4003 49.6055 19.4909C49.7031 19.5685 49.7523 19.6591 49.7523 19.7626C49.7523 19.8532 49.724 19.9308 49.6682 19.9955L45.4169 25.9934L50.0245 32.3018C50.0663 32.3534 50.0872 32.4314 50.0872 32.5346C50.0872 32.6382 50.0454 32.7352 49.9613 32.8258C49.8777 32.9034 49.7732 32.9424 49.6473 32.9424H46.5266C46.2335 32.9424 45.9892 32.8128 45.7936 32.5541L43.0292 28.8274L40.2853 32.5541C40.1317 32.8128 39.8943 32.9424 39.5732 32.9424H36.5572Z" fill="white"/>
<path d="M15.7007 43.6374C15.6445 43.6374 15.5919 43.6165 15.5427 43.5747C15.5005 43.526 15.4795 43.4735 15.4795 43.4173C15.4795 43.3755 15.483 43.3439 15.49 43.323L17.9656 36.5924C17.9866 36.5083 18.0323 36.4387 18.1025 36.3824C18.1727 36.3267 18.264 36.2988 18.3764 36.2988H19.9355C20.0478 36.2988 20.1391 36.3267 20.2094 36.3824C20.2796 36.4387 20.3252 36.5083 20.3463 36.5924L22.8113 43.323L22.8324 43.4173C22.8324 43.4735 22.8078 43.526 22.7586 43.5747C22.7165 43.6165 22.6638 43.6374 22.6006 43.6374H21.3049C21.1364 43.6374 21.024 43.564 20.9678 43.4173L20.557 42.3479H17.7443L17.3441 43.4173C17.2879 43.564 17.172 43.6374 16.9964 43.6374H15.7007ZM20.1356 40.8382L19.1559 38.0705L18.1763 40.8382H20.1356Z" fill="white"/>
<path d="M26.5956 43.7424C25.6054 43.7424 24.8294 43.5013 24.2675 43.0192C23.7127 42.5365 23.4353 41.81 23.4353 40.8382V36.5608C23.4353 36.4837 23.4599 36.421 23.5091 36.3722C23.5652 36.323 23.6285 36.2988 23.6987 36.2988H25.0576C25.1348 36.2988 25.198 36.323 25.2472 36.3722C25.3034 36.421 25.3315 36.4837 25.3315 36.5608V40.828C25.3315 41.2823 25.4368 41.6246 25.6475 41.855C25.8652 42.0789 26.1777 42.1909 26.585 42.1909C26.9854 42.1909 27.2944 42.0752 27.512 41.8448C27.7298 41.614 27.8386 41.2753 27.8386 40.828V36.5608C27.8386 36.4837 27.8632 36.421 27.9124 36.3722C27.9685 36.323 28.0318 36.2988 28.102 36.2988H29.4714C29.5487 36.2988 29.6119 36.323 29.661 36.3722C29.7102 36.421 29.7348 36.4837 29.7348 36.5608V40.8382C29.7348 41.81 29.4539 42.5365 28.8921 43.0192C28.3372 43.5013 27.5717 43.7424 26.5956 43.7424Z" fill="white"/>
<path d="M33.0178 43.6374C32.9475 43.6374 32.8843 43.6133 32.8281 43.564C32.779 43.5083 32.7544 43.4451 32.7544 43.3754V37.9447H30.8793C30.8091 37.9447 30.7458 37.92 30.6897 37.8713C30.6405 37.8155 30.616 37.7523 30.616 37.6827V36.5608C30.616 36.4837 30.6405 36.421 30.6897 36.3722C30.7458 36.323 30.8091 36.2988 30.8793 36.2988H36.5467C36.624 36.2988 36.6872 36.323 36.7363 36.3722C36.7855 36.421 36.8101 36.4837 36.8101 36.5608V37.6827C36.8101 37.7593 36.7855 37.8225 36.7363 37.8713C36.6872 37.92 36.624 37.9447 36.5467 37.9447H34.6716V43.3754C34.6716 43.4451 34.647 43.5083 34.5979 43.564C34.5487 43.6133 34.4855 43.6374 34.4083 43.6374H33.0178Z" fill="white"/>
<path d="M40.6664 43.7424C39.6762 43.7424 38.8967 43.5013 38.3278 43.0192C37.759 42.5365 37.457 41.8272 37.4219 40.8907C37.4149 40.6882 37.4114 40.3876 37.4114 39.989C37.4114 39.5835 37.4149 39.2797 37.4219 39.0772C37.457 38.1542 37.7625 37.4448 38.3384 36.9487C38.9213 36.4456 39.6973 36.1938 40.6664 36.1938C41.6357 36.1938 42.4114 36.4456 42.9944 36.9487C43.5774 37.4448 43.883 38.1542 43.9109 39.0772C43.9248 39.4822 43.9318 39.7865 43.9318 39.989C43.9318 40.1846 43.9248 40.4852 43.9109 40.8907C43.8761 41.8272 43.5737 42.5365 43.0051 43.0192C42.436 43.5013 41.6566 43.7424 40.6664 43.7424ZM40.6664 42.2327C41.0527 42.2327 41.3583 42.1175 41.5827 41.8866C41.8145 41.6562 41.9376 41.3032 41.9515 40.828C41.9655 40.4224 41.9729 40.1358 41.9729 39.9681C41.9729 39.7865 41.9655 39.4999 41.9515 39.1083C41.9376 38.6331 41.8145 38.28 41.5827 38.0496C41.3514 37.8188 41.0457 37.7036 40.6664 37.7036C40.2872 37.7036 39.9817 37.8188 39.7499 38.0496C39.5252 38.28 39.4023 38.6331 39.3813 39.1083C39.3742 39.3043 39.3707 39.5905 39.3707 39.9681C39.3707 40.3384 39.3742 40.625 39.3813 40.828C39.4023 41.3032 39.5252 41.6562 39.7499 41.8866C39.9747 42.1175 40.2802 42.2327 40.6664 42.2327Z" fill="white"/>
<path d="M65.9699 30V22.1965H67.7647V27.2799L71.488 22.1965H73.1825V30H71.3988V24.9277L67.6755 30H65.9699ZM75.1254 30V22.1965H76.6192L79.9413 27.7035H79.1498L82.4161 22.1965H83.9099L83.9211 30H82.2266L82.2155 24.794H82.5387L79.919 29.1751H79.1164L76.4409 24.794H76.8199V30H75.1254ZM85.8596 30V22.1965H92.9719V30H91.1771V23.2556L91.5895 23.668H87.2419L87.6544 23.2556V30H85.8596ZM98.6408 30.1338C98.024 30.1338 97.4517 30.0334 96.924 29.8328C96.4038 29.6321 95.9505 29.3497 95.564 28.9855C95.185 28.6214 94.8877 28.1941 94.6722 27.7035C94.4641 27.213 94.36 26.678 94.36 26.0983C94.36 25.5186 94.4641 24.9835 94.6722 24.493C94.8877 24.0025 95.1887 23.5751 95.5752 23.211C95.9616 22.8468 96.415 22.5644 96.9352 22.3637C97.4554 22.1631 98.0202 22.0628 98.6297 22.0628C99.2465 22.0628 99.8113 22.1631 100.324 22.3637C100.844 22.5644 101.294 22.8468 101.673 23.211C102.059 23.5751 102.36 24.0025 102.576 24.493C102.792 24.976 102.899 25.5111 102.899 26.0983C102.899 26.678 102.792 27.2168 102.576 27.7147C102.36 28.2052 102.059 28.6325 101.673 28.9967C101.294 29.3534 100.844 29.6321 100.324 29.8328C99.8113 30.0334 99.2502 30.1338 98.6408 30.1338ZM98.6297 28.5954C98.979 28.5954 99.2985 28.5359 99.5884 28.417C99.8856 28.2981 100.146 28.1272 100.369 27.9042C100.592 27.6813 100.763 27.4174 100.882 27.1127C101.008 26.808 101.071 26.4699 101.071 26.0983C101.071 25.7267 101.008 25.3885 100.882 25.0838C100.763 24.7791 100.592 24.5153 100.369 24.2923C100.153 24.0694 99.8968 23.8984 99.5995 23.7795C99.3022 23.6606 98.979 23.6012 98.6297 23.6012C98.2804 23.6012 97.9571 23.6606 97.6598 23.7795C97.37 23.8984 97.1136 24.0694 96.8906 24.2923C96.6676 24.5153 96.493 24.7791 96.3666 25.0838C96.2477 25.3885 96.1883 25.7267 96.1883 26.0983C96.1883 26.4624 96.2477 26.8006 96.3666 27.1127C96.493 27.4174 96.6639 27.6813 96.8794 27.9042C97.1024 28.1272 97.3625 28.2981 97.6598 28.417C97.9571 28.5359 98.2804 28.5954 98.6297 28.5954ZM104.29 30V22.1965H107.668C108.367 22.1965 108.969 22.3117 109.474 22.5421C109.98 22.7651 110.37 23.0884 110.645 23.512C110.92 23.9356 111.057 24.441 111.057 25.0281C111.057 25.6078 110.92 26.1094 110.645 26.533C110.37 26.9566 109.98 27.2836 109.474 27.514C108.969 27.737 108.367 27.8485 107.668 27.8485H105.294L106.096 27.0347V30H104.29ZM106.096 27.2353L105.294 26.377H107.568C108.125 26.377 108.542 26.258 108.816 26.0202C109.091 25.7824 109.229 25.4517 109.229 25.0281C109.229 24.597 109.091 24.2626 108.816 24.0248C108.542 23.7869 108.125 23.668 107.568 23.668H105.294L106.096 22.8097V27.2353ZM113.725 30V23.2556L114.137 23.668H111.239V22.1965H118.006V23.668H115.107L115.509 23.2556V30H113.725ZM120.801 25.3402H124.558V26.7448H120.801V25.3402ZM120.935 28.5508H125.182V30H119.14V22.1965H125.037V23.6457H120.935V28.5508ZM126.641 30V22.1965H130.018C130.717 22.1965 131.319 22.3117 131.824 22.5421C132.33 22.7651 132.72 23.0884 132.995 23.512C133.27 23.9356 133.407 24.441 133.407 25.0281C133.407 25.6078 133.27 26.1094 132.995 26.533C132.72 26.9566 132.33 27.2836 131.824 27.514C131.319 27.737 130.717 27.8485 130.018 27.8485H127.644L128.446 27.0347V30H126.641ZM128.446 27.2353L127.644 26.377H129.918C130.475 26.377 130.892 26.258 131.167 26.0202C131.442 25.7824 131.579 25.4517 131.579 25.0281C131.579 24.597 131.442 24.2626 131.167 24.0248C130.892 23.7869 130.475 23.668 129.918 23.668H127.644L128.446 22.8097V27.2353ZM65.0892 44L68.5673 36.1965H70.351L73.8402 44H71.9451L69.0912 37.1106H69.8047L66.9397 44H65.0892ZM66.8282 42.3278L67.3076 40.9566H71.3208L71.8113 42.3278H66.8282ZM74.8751 44V36.1965H78.5092C79.4159 36.1965 80.122 36.3712 80.6273 36.7205C81.1327 37.0698 81.3854 37.5677 81.3854 38.2143C81.3854 38.8534 81.1476 39.3514 80.6719 39.7081C80.1963 40.0574 79.5646 40.232 78.7768 40.232L78.9886 39.7638C79.8656 39.7638 80.5456 39.9385 81.0286 40.2878C81.5117 40.6371 81.7533 41.1424 81.7533 41.8039C81.7533 42.4876 81.4931 43.0264 80.9729 43.4203C80.4601 43.8068 79.7095 44 78.721 44H74.8751ZM76.6698 42.6623H78.6542C79.0703 42.6623 79.3862 42.5805 79.6017 42.417C79.8173 42.2535 79.925 42.0008 79.925 41.659C79.925 41.332 79.8173 41.0904 79.6017 40.9344C79.3862 40.7708 79.0703 40.6891 78.6542 40.6891H76.6698V42.6623ZM76.6698 39.4294H78.3532C78.7471 39.4294 79.0443 39.3514 79.245 39.1953C79.4457 39.0318 79.546 38.794 79.546 38.4818C79.546 38.1697 79.4457 37.9356 79.245 37.7795C79.0443 37.616 78.7471 37.5343 78.3532 37.5343H76.6698V39.4294ZM84.7559 44V37.2556L85.1684 37.668H82.27V36.1965H89.0367V37.668H86.1383L86.5396 37.2556V44H84.7559ZM93.7963 44.1338C93.1794 44.1338 92.6072 44.0334 92.0795 43.8328C91.5593 43.6321 91.106 43.3497 90.7195 42.9855C90.3405 42.6214 90.0432 42.1941 89.8277 41.7035C89.6196 41.213 89.5155 40.678 89.5155 40.0983C89.5155 39.5186 89.6196 38.9835 89.8277 38.493C90.0432 38.0025 90.3442 37.5751 90.7306 37.211C91.1171 36.8468 91.5704 36.5644 92.0907 36.3637C92.6109 36.1631 93.1757 36.0628 93.7851 36.0628C94.402 36.0628 94.9668 36.1631 95.4796 36.3637C95.9998 36.5644 96.4495 36.8468 96.8285 37.211C97.215 37.5751 97.5159 38.0025 97.7315 38.493C97.947 38.976 98.0548 39.5111 98.0548 40.0983C98.0548 40.678 97.947 41.2168 97.7315 41.7147C97.5159 42.2052 97.215 42.6325 96.8285 42.9967C96.4495 43.3534 95.9998 43.6321 95.4796 43.8328C94.9668 44.0334 94.4057 44.1338 93.7963 44.1338ZM93.7851 42.5954C94.1344 42.5954 94.454 42.5359 94.7439 42.417C95.0411 42.2981 95.3012 42.1272 95.5242 41.9042C95.7472 41.6813 95.9181 41.4174 96.037 41.1127C96.1633 40.808 96.2265 40.4699 96.2265 40.0983C96.2265 39.7267 96.1633 39.3885 96.037 39.0838C95.9181 38.7791 95.7472 38.5153 95.5242 38.2923C95.3087 38.0694 95.0523 37.8984 94.755 37.7795C94.4577 37.6606 94.1344 37.6012 93.7851 37.6012C93.4358 37.6012 93.1126 37.6606 92.8153 37.7795C92.5254 37.8984 92.269 38.0694 92.0461 38.2923C91.8231 38.5153 91.6485 38.7791 91.5221 39.0838C91.4032 39.3885 91.3438 39.7267 91.3438 40.0983C91.3438 40.4624 91.4032 40.8006 91.5221 41.1127C91.6485 41.4174 91.8194 41.6813 92.0349 41.9042C92.2579 42.1272 92.518 42.2981 92.8153 42.417C93.1126 42.5359 93.4358 42.5954 93.7851 42.5954ZM102.558 44V36.1965H104.052L108.656 41.815H107.932V36.1965H109.715V44H108.233L103.618 38.3815H104.342V44H102.558ZM110.752 41.5809V40.5219H114.52V41.5809H110.752ZM112.636 39.7861C112.227 39.7861 111.863 39.7081 111.544 39.552C111.231 39.396 110.983 39.1767 110.797 38.8943C110.618 38.6119 110.529 38.2923 110.529 37.9356C110.529 37.5789 110.618 37.263 110.797 36.988C110.983 36.713 111.231 36.4975 111.544 36.3414C111.863 36.1854 112.227 36.1073 112.636 36.1073C113.052 36.1073 113.416 36.1854 113.729 36.3414C114.048 36.4975 114.297 36.713 114.475 36.988C114.654 37.263 114.743 37.5826 114.743 37.9467C114.743 38.296 114.65 38.6119 114.464 38.8943C114.286 39.1693 114.041 39.3885 113.729 39.552C113.416 39.7081 113.052 39.7861 112.636 39.7861ZM112.636 38.8609C112.911 38.8609 113.134 38.7791 113.305 38.6156C113.476 38.4447 113.561 38.218 113.561 37.9356C113.561 37.6532 113.476 37.4339 113.305 37.2779C113.134 37.1144 112.911 37.0326 112.636 37.0326C112.361 37.0326 112.134 37.1144 111.956 37.2779C111.785 37.4339 111.7 37.6569 111.7 37.9467C111.7 38.2217 111.785 38.4447 111.956 38.6156C112.134 38.7791 112.361 38.8609 112.636 38.8609ZM117.098 44V36.8654L117.878 37.6457H115.537V36.1965H118.904V44H117.098Z" fill="black"/>
</svg>
