<svg width="115" height="41" viewBox="0 0 115 41" fill="none" xmlns="http://www.w3.org/2000/svg">
<path fill-rule="evenodd" clip-rule="evenodd" d="M2.38118 0.0810463C2.29019 0.224346 2.41751 0.77587 2.6844 1.39525C3.04861 2.2403 3.848 3.36688 4.68721 4.21781C5.10693 4.64347 5.42317 4.99174 5.38982 4.99174C5.35654 4.99174 4.44629 4.56154 3.36698 4.03571C2.28768 3.50996 1.33584 3.07976 1.25178 3.07976C1.02432 3.07976 1.14647 3.53655 1.54456 4.17447C2.32651 5.42759 3.87884 6.54948 6.0325 7.41807C6.444 7.58409 6.6965 7.71994 6.59362 7.72009C5.72669 7.72106 1.43057 7.16089 0.954882 6.98475C0.599581 6.85329 0 6.88345 0 7.03286C0 7.3097 0.137977 7.4717 0.715703 7.87307C1.49758 8.41618 2.32697 8.74836 3.848 9.12768C5.25801 9.47923 5.26761 9.47223 3.18956 9.60994C2.33938 9.6664 2.1034 9.71213 2.02368 9.83591C1.88242 10.055 2.24184 10.412 2.92251 10.7288C3.37703 10.9403 3.43848 10.9964 3.32 11.0922C3.24294 11.1544 3.17989 11.2799 3.17989 11.3711C3.17989 11.558 3.51455 11.8204 3.75305 11.8204C3.83955 11.8204 4.09327 11.9697 4.31676 12.1522C4.54025 12.3348 4.86426 12.5419 5.0368 12.6126C5.33774 12.736 5.3439 12.7482 5.18902 12.9146C5.10039 13.0102 5.05333 13.1531 5.08455 13.2323C5.14965 13.3975 5.6941 13.6413 5.99785 13.6413C6.11078 13.6413 6.37645 13.7402 6.58829 13.8611C6.80013 13.9819 7.13404 14.1101 7.33042 14.146C7.60912 14.1969 7.7075 14.2675 7.77923 14.4679C7.87708 14.7409 8.49303 15.0981 8.8663 15.0981C9.06443 15.0981 9.0655 15.1052 8.91702 15.4084C8.70792 15.8354 8.79282 15.9744 9.30887 16.0497C9.72843 16.111 9.73894 16.1196 9.5501 16.2485C9.44151 16.3225 9.35265 16.4443 9.35265 16.5192C9.35265 16.6972 9.90738 16.9188 10.355 16.9198C10.6369 16.9203 10.7299 16.9649 10.813 17.1393C10.9048 17.3323 10.8853 17.3812 10.6493 17.5511C10.327 17.7831 10.3085 17.9661 10.5919 18.1182C10.8295 18.2456 12.7537 18.2823 13.2773 18.1693L13.6013 18.0995L13.2773 18.4257C13.0991 18.6051 12.8166 18.8346 12.6495 18.9356C12.198 19.2081 12.2625 19.3203 12.8365 19.261C13.1065 19.2331 13.4075 19.1797 13.5052 19.1423C13.6604 19.0829 13.675 19.105 13.6204 19.3168C13.586 19.4502 13.5852 19.6656 13.6186 19.7953C13.6805 20.0355 13.8147 20.0538 14.2394 19.8801C14.3776 19.8235 14.4031 19.8638 14.4031 20.1383C14.4031 20.4559 14.6617 20.7341 14.8168 20.5832C14.9082 20.4942 15.0547 20.7501 15.0563 21.002C15.0572 21.138 15.1255 21.2326 15.2448 21.2629C15.3477 21.2892 15.4319 21.3653 15.4319 21.4323C15.4319 21.7452 15.6534 22.0177 15.908 22.0177C16.1054 22.0177 16.1742 22.0664 16.1969 22.2226C16.2199 22.3795 16.2872 22.4266 16.484 22.4239C16.697 22.4209 16.7419 22.4601 16.7453 22.6515C16.7508 22.9641 17.1277 23.5904 17.3762 23.6998C17.487 23.7486 17.6274 23.9055 17.6882 24.0483C17.8565 24.4437 18.1647 24.597 18.6919 24.5478C19.0368 24.5155 19.1932 24.545 19.3555 24.6729C19.5872 24.8556 20.4268 24.9101 20.5291 24.7492C20.6209 24.6046 21.379 24.6397 21.5111 24.7947C21.5752 24.8698 21.7171 24.9327 21.8265 24.9344C21.936 24.9363 22.1307 24.9962 22.2593 25.0678C22.5424 25.2253 23.0242 25.2428 23.17 25.1009C23.2862 24.9877 24.7846 24.7499 24.7846 24.8446C24.7846 24.8767 24.622 25.1479 24.4233 25.4471C23.4901 26.8528 21.9899 27.4422 18.3312 27.8404C17.1438 27.9697 13.7487 28.234 13.047 28.252C12.4 28.2684 12.3703 28.3502 12.8389 28.8244L13.132 29.1211L12.692 29.0624C12.1181 28.9858 12.1022 29.1624 12.6423 29.6127C13.1276 30.017 13.6712 30.2775 14.2486 30.3826C14.4926 30.4269 14.7141 30.4845 14.7409 30.5106C14.7677 30.5365 14.6166 30.6524 14.4052 30.7681C14.1238 30.9221 14.0284 31.028 14.0485 31.1642C14.0713 31.3205 14.143 31.3497 14.4966 31.3474C14.7281 31.3459 15.1069 31.3104 15.3383 31.2687L15.7592 31.1928L15.5403 31.4227C15.4199 31.5491 15.337 31.7279 15.3561 31.82C15.3855 31.9624 15.4784 31.9861 15.9741 31.9785C16.5272 31.9702 16.5496 31.9781 16.4071 32.1314C16.3095 32.2363 16.2796 32.3631 16.3217 32.4924C16.3837 32.6824 16.4246 32.6894 17.1953 32.6439C17.64 32.6176 18.0967 32.5674 18.21 32.5326C18.4021 32.4735 18.4124 32.4913 18.3618 32.7953C18.3127 33.09 18.3327 33.1306 18.5701 33.2185C18.8708 33.3298 19.6442 33.2039 19.9814 32.9888C20.1576 32.8763 20.1996 32.8768 20.2981 32.9923C20.4537 33.1748 20.8422 33.1595 21.2553 32.9544C21.546 32.8101 21.6172 32.803 21.7074 32.9089C21.8438 33.0688 21.9604 33.0665 22.2933 32.8974C22.4408 32.8226 22.6138 32.7614 22.6782 32.7614C22.9173 32.7614 23.2784 32.3821 23.4377 31.9637C23.528 31.7265 23.6132 31.5173 23.6271 31.4991C23.641 31.4809 23.7963 31.5526 23.9722 31.6584C24.1483 31.7643 24.3504 31.8511 24.4215 31.8513C24.4925 31.8515 24.7401 31.9749 24.9716 32.1255C25.2031 32.2762 25.5496 32.4413 25.7416 32.4924C25.9336 32.5436 26.1333 32.6628 26.1852 32.7574C26.266 32.9042 26.2394 32.9379 26.0032 32.9884C25.7682 33.0386 25.7419 33.0715 25.8285 33.2065C25.8846 33.2939 26.0787 33.4642 26.2597 33.5851C26.5828 33.8006 26.5847 33.8056 26.3649 33.8562C26.1493 33.9057 26.155 33.9171 26.5148 34.1559C26.7205 34.2925 27.0459 34.4289 27.2379 34.4591C27.6375 34.522 27.6203 34.6371 27.195 34.7443L26.9023 34.8181L27.1261 35.0211C27.2491 35.1327 27.5052 35.2694 27.695 35.3248C28.0039 35.4149 28.0466 35.4651 28.0996 35.8005C28.1322 36.0069 28.238 36.3395 28.3346 36.5399C28.4902 36.8619 28.5119 36.8777 28.5223 36.6764C28.5315 36.5004 28.6003 36.5829 28.8262 37.0406L29.1181 37.6324L29.1836 37.3138C29.2196 37.1385 29.2549 37.0566 29.2619 37.1317C29.2688 37.2068 29.4005 37.4527 29.5544 37.678L29.8341 38.0877L29.8351 37.8145L29.8361 37.5414L29.9811 37.8145C30.0609 37.9648 30.1924 38.1492 30.2734 38.2243C30.4056 38.347 30.4154 38.3393 30.3684 38.1488C30.3263 37.9774 30.3462 37.9483 30.4731 37.9972C30.5593 38.0305 30.8845 38.1104 31.1956 38.1747C31.9556 38.3318 32.2357 38.4863 32.7547 39.0348C33.0437 39.3403 33.2691 39.4989 33.4138 39.4989C33.7119 39.4989 33.9491 39.6831 34.1287 40.0542C34.2902 40.3881 34.6089 40.504 34.8438 40.3142C35.0405 40.1553 35.0092 39.7696 34.7804 39.5327C34.4812 39.2225 34.6027 38.9113 35.1078 38.6937C35.3323 38.5971 35.543 38.4753 35.5762 38.423C35.6093 38.3708 35.869 38.2997 36.153 38.2652C36.5773 38.2136 36.7024 38.2313 36.8531 38.3641C36.9539 38.4529 37.0365 38.5751 37.0365 38.6355C37.0365 38.7024 37.1245 38.7289 37.262 38.7034C37.5573 38.6484 37.8232 39.0208 37.7648 39.4077C37.714 39.7445 37.805 39.7549 38.0585 39.4411C38.3669 39.0595 38.2592 38.4092 37.8093 37.9365L37.5787 37.6943L37.7753 37.5919C38.0546 37.4463 38.3064 37.6043 38.4445 38.0118C38.5504 38.3242 38.567 38.3355 38.6858 38.1773C38.8748 37.9258 38.8455 37.3815 38.6309 37.1573C38.3368 36.85 37.9105 36.7592 37.1768 36.8477C36.8167 36.8911 36.511 36.9174 36.4974 36.9064C36.4838 36.8954 36.5562 36.7831 36.6582 36.6568C36.9337 36.3158 37.9413 35.8746 38.3749 35.9049C38.7581 35.9318 39.0932 36.1595 39.0955 36.3947C39.0968 36.5217 39.1083 36.5228 39.1876 36.4033C39.3356 36.1805 39.2941 35.8066 39.0941 35.559C38.8911 35.3079 38.837 35.1151 39.0193 35.2925C39.185 35.4538 39.2645 35.4266 39.298 35.197C39.3356 34.9392 39.6281 34.9658 39.8733 35.2493C40.0438 35.4464 40.0443 35.4456 39.9933 35.0831C39.9131 34.5123 39.6452 34.3483 38.6678 34.2711L37.8459 34.2061L37.1372 34.5536C36.6717 34.7818 36.389 34.9823 36.3132 35.138C36.2497 35.2684 36.0308 35.4876 35.8267 35.6253L35.4557 35.8756L35.0574 35.6615C34.1836 35.1917 33.5494 34.0713 33.3323 32.6138C33.2512 32.0691 33.0855 31.3811 32.9642 31.0851C32.6934 30.4238 32.6833 30.4455 33.7866 29.318C34.8377 28.244 35.0449 27.8262 35.2574 26.3521C35.3449 25.7459 35.4548 25.2586 35.5016 25.2692C35.5485 25.2799 35.8394 25.3916 36.148 25.5175C36.4566 25.6433 36.8213 25.7473 36.9582 25.7485C37.2492 25.751 37.6869 26.2694 37.9375 26.9078C38.069 27.2432 38.0754 27.362 37.9784 27.6769C37.8107 28.2218 37.9418 28.2892 38.5792 27.9856C38.9364 27.8155 39.1841 27.6173 39.3561 27.3645C39.5854 27.0272 39.6071 26.9219 39.5927 26.2127C39.5841 25.7833 39.5733 24.9662 39.5688 24.397C39.5595 23.2101 39.4619 22.9158 38.7599 21.9581C38.2723 21.2929 37.638 20.7699 36.9147 20.4369C36.1624 20.0904 34.3463 19.5801 32.8031 19.2815C31.8556 19.0982 31.242 18.9259 30.8478 18.7322C30.1956 18.4117 29.5159 17.7768 29.1332 17.131C28.5704 16.1806 27.8501 15.3416 26.0509 13.54C25.02 12.5077 23.7557 11.2355 23.2414 10.7128C22.5356 9.99545 22.1445 9.67846 21.6478 9.42076C20.61 8.8825 17.607 6.7088 15.9234 5.27737C15.4255 4.85395 15.1023 4.63885 15.0461 4.69344C14.8477 4.88664 15.3113 5.6205 16.4859 6.97275L17.2183 7.81594L16.6893 7.58826C15.8599 7.23113 15.1934 6.80279 13.9822 5.84848C9.76788 2.52801 8.05694 1.2588 7.79476 1.2588C7.56099 1.2588 7.66379 1.78515 8.03348 2.48057C8.47392 3.30916 8.94458 3.95222 9.6216 4.65032C9.90091 4.93818 10.0958 5.17384 10.0547 5.17384C9.92177 5.17384 7.83649 3.98112 6.82747 3.32785C5.66311 2.57412 4.34684 1.56223 3.33964 0.646573C2.59843 -0.027173 2.4903 -0.090928 2.38118 0.0810463ZM50.1042 1.95936C50.0806 1.99973 49.9869 2.36043 49.8971 2.76106C49.5255 4.41385 48.5866 6.43404 47.3819 8.16838C46.6624 9.20507 45.6409 10.4849 45.5802 10.4259C45.561 10.4071 45.6301 10.2047 45.734 9.97616C45.9626 9.47297 46.0856 8.72467 45.9396 8.72467C45.8843 8.72467 45.6504 8.96323 45.4198 9.2549C44.4856 10.4367 43.1047 11.5378 39.9826 13.5902C37.4517 15.2537 36.5562 15.9265 35.4929 16.9629C34.4719 17.9582 33.668 18.9926 33.8736 19.0463C35.6425 19.5086 36.9008 19.8906 37.3664 20.1069C38.0821 20.4394 38.779 21.0366 39.3321 21.7911C39.8206 22.4574 40.0294 22.9787 40.0294 23.5315C40.0294 23.9415 40.156 24.0432 40.3869 23.8183C40.4498 23.7571 40.6388 23.7186 40.807 23.7327C41.0206 23.7506 41.1653 23.7018 41.287 23.5709C41.3829 23.4677 41.5776 23.3835 41.7201 23.3835C41.8625 23.3835 42.098 23.2871 42.2434 23.1694C42.3888 23.0516 42.5575 22.9722 42.6184 22.9928C42.743 23.0351 43.2357 22.8068 43.5744 22.5497C43.7761 22.3967 43.8154 22.3933 43.9559 22.5171C44.279 22.8018 44.6062 22.5891 44.7556 21.9974C44.8163 21.757 44.8262 21.7535 45.0846 21.8836C45.6166 22.1515 46.015 22.0103 46.015 21.5539V21.3084L46.5847 21.481C47.1763 21.6604 47.9317 21.7104 48.017 21.5759C48.0863 21.4678 47.9043 21.2768 47.4573 20.987C47.2472 20.8509 46.9525 20.6117 46.8025 20.4551L46.5291 20.1708L46.7629 20.2332C46.8916 20.2677 47.3233 20.3203 47.7216 20.3503C48.5409 20.412 48.617 20.3436 48.1426 19.9712L47.8388 19.7326L48.2828 19.7928C48.7884 19.8615 49.5689 19.7724 49.5689 19.6462C49.5689 19.5999 49.3267 19.4431 49.0313 19.2976C48.7351 19.1522 48.3878 18.9481 48.2592 18.8441L48.0261 18.655L48.5584 18.652C48.866 18.6503 49.1196 18.6032 49.1592 18.5405C49.1973 18.4809 49.1782 18.4159 49.1181 18.3963C48.9353 18.3371 48.994 18.1937 49.2011 18.1937C49.4204 18.1937 49.7562 18.039 49.7562 17.9381C49.7562 17.9011 49.6108 17.7949 49.4333 17.702C49.2567 17.609 49.0275 17.446 48.9247 17.3398L48.7389 17.1466L49.5514 17.1434C50.4796 17.1396 51.0911 16.9806 51.0469 16.7546C51.0294 16.6682 50.7194 16.4879 50.2938 16.3169C49.8955 16.157 49.3694 15.9101 49.1249 15.7681C48.7221 15.5344 48.7023 15.5078 48.914 15.4858C50.3737 15.335 51.4627 15.0321 51.6279 14.731C51.7025 14.5959 51.6842 14.5393 51.5403 14.4646C51.4406 14.4124 51.2822 14.3672 51.1885 14.3642C51.0949 14.361 50.7872 14.2874 50.504 14.2006L49.99 14.0426L50.5565 13.7474C51.2266 13.3986 52.0939 12.6852 52.0939 12.4835C52.0939 12.3667 52.0147 12.3513 51.65 12.3971C51.4055 12.4279 51.1177 12.4777 51.0096 12.5078C50.8976 12.5392 51.2015 12.1806 51.7215 11.668C52.2211 11.1759 52.8211 10.484 53.0564 10.1306C53.626 9.27225 54.0646 7.99633 53.7897 7.99633C53.7448 7.99633 53.2696 8.41633 52.7343 8.92957C52.199 9.44281 51.554 10.0045 51.3005 10.1776L50.8405 10.4924L51.1466 9.99545C51.8381 8.87229 52.3513 7.56524 52.5569 6.40298C52.6863 5.67509 52.6574 4.12196 52.515 4.13596C52.464 4.1411 52.1358 4.63274 51.787 5.22858C51.1626 6.29536 50.3501 7.54111 50.2793 7.54111C50.2595 7.54111 50.3212 7.29674 50.4171 6.99808C50.7583 5.92974 50.8984 4.91748 50.8626 3.76743C50.836 2.90235 50.7895 2.59288 50.6433 2.30584C50.4697 1.96465 50.2024 1.79319 50.1042 1.95936ZM16.445 20.0465C16.962 20.2268 17.0761 20.3789 16.6945 20.3789C16.3831 20.3789 16.3994 20.5114 16.7412 20.7574C16.9088 20.8779 17.0218 21.0422 17.0218 21.1647C17.0218 21.3886 17.3382 21.6535 17.6056 21.6535C17.7373 21.6535 17.7612 21.7018 17.716 21.8772C17.6684 22.0615 17.7131 22.1332 17.9714 22.2865C18.1436 22.3886 18.3581 22.4724 18.4481 22.4726C18.5382 22.4728 18.6118 22.5139 18.6118 22.564C18.6118 22.6141 18.5276 22.655 18.4247 22.655C18.3218 22.655 18.2377 22.697 18.2377 22.7484C18.2377 22.8689 18.7 23.0408 18.8617 22.9803C18.9433 22.9498 18.9859 23.0076 18.9859 23.1489C18.9859 23.3758 19.1409 23.4745 19.4975 23.4745C19.6456 23.4745 19.7092 23.5244 19.7003 23.6339C19.6895 23.7666 19.7654 23.7924 20.155 23.7887C20.4121 23.7862 20.7067 23.7505 20.8096 23.7092C20.9605 23.6487 20.9547 23.6646 20.7799 23.7915C20.3818 24.0802 19.36 24.0884 19.36 23.8028C19.36 23.7348 19.2371 23.6554 19.0869 23.6262C18.9248 23.5946 18.7893 23.4976 18.7533 23.3872C18.72 23.2849 18.6246 23.2014 18.5414 23.2014C18.361 23.2014 17.9571 22.8515 17.9571 22.6952C17.9571 22.6346 17.8525 22.5183 17.7248 22.4367C17.597 22.3553 17.4675 22.1919 17.4371 22.0738C17.4066 21.9556 17.2816 21.8069 17.1592 21.743C17.0368 21.6793 16.8744 21.4993 16.7983 21.3431C16.7221 21.1868 16.5519 20.9603 16.42 20.8397C16.288 20.719 16.1801 20.5298 16.1801 20.419C16.1801 20.2996 16.0754 20.1514 15.9229 20.0547C15.619 19.8623 15.439 19.6516 15.4349 19.4841C15.4332 19.4175 15.5505 19.4787 15.6967 19.6207C15.8425 19.7623 16.1791 19.9539 16.445 20.0465ZM44.7992 20.5233C44.7992 20.6028 44.676 20.7131 44.5255 20.7684C44.3748 20.8237 44.2075 20.9636 44.1534 21.0792C44.0993 21.1947 43.9924 21.2893 43.916 21.2893C43.8395 21.2893 43.7319 21.3713 43.6769 21.4714C43.6218 21.5716 43.5314 21.6535 43.4762 21.6535C43.4208 21.6535 43.1745 21.8174 42.9287 22.0177C42.6828 22.218 42.4224 22.3819 42.3499 22.3819C42.2772 22.3819 42.1778 22.4158 42.129 22.4571C42.0802 22.4985 41.868 22.5849 41.6575 22.6491C41.332 22.7483 41.2332 22.7447 40.996 22.6254C40.8426 22.5482 40.6578 22.4106 40.5852 22.3197C40.4591 22.1614 40.4617 22.1611 40.645 22.3125C40.8835 22.5096 41.4322 22.6293 41.4322 22.4843C41.4322 22.428 41.5585 22.3819 41.7128 22.3819C41.8672 22.3819 41.9934 22.341 41.9934 22.2908C41.9934 22.2408 42.1038 22.1998 42.2386 22.1998C42.446 22.1998 42.466 22.1787 42.3675 22.0632C42.2684 21.947 42.2929 21.9267 42.5316 21.9267C42.7962 21.9267 43.0787 21.7389 42.9714 21.6344C42.9443 21.6081 43.0499 21.5617 43.206 21.5313C43.3621 21.5008 43.4899 21.4201 43.4899 21.3518C43.4899 21.2834 43.6051 21.1763 43.7461 21.1139C43.9933 21.0042 43.996 20.9957 43.8218 20.8716C43.6488 20.7485 43.6511 20.7431 43.8789 20.7431C44.1877 20.7431 44.7057 20.5664 44.7057 20.461C44.7057 20.4158 44.7267 20.3789 44.7524 20.3789C44.7782 20.3789 44.7992 20.4439 44.7992 20.5233ZM38.3479 23.6566C38.3861 23.6566 38.5858 23.8205 38.7915 24.0208C39.223 24.4408 39.077 24.5214 38.6264 24.1118C38.4613 23.9616 38.2917 23.8387 38.2496 23.8387C38.1381 23.8387 37.5976 23.3814 37.5976 23.287C37.5976 23.243 37.7508 23.3081 37.9381 23.4317C38.1252 23.5554 38.3097 23.6566 38.3479 23.6566ZM38.3458 24.1118C38.3458 24.1619 38.2827 24.2029 38.2056 24.2029C38.1284 24.2029 38.0653 24.1619 38.0653 24.1118C38.0653 24.0617 38.1284 24.0208 38.2056 24.0208C38.2827 24.0208 38.3458 24.0617 38.3458 24.1118ZM31.8192 35.0817C31.856 35.0825 32.022 35.288 32.188 35.5384C32.4164 35.8826 32.499 35.9531 32.5268 35.8276C32.5522 35.7132 32.6119 35.681 32.719 35.7243C33.0337 35.8511 33.4919 35.9286 33.6656 35.8844C33.7927 35.852 34.0046 35.9927 34.3993 36.3715C34.914 36.8654 34.9511 36.9285 34.9102 37.2398C34.8545 37.6655 34.6542 37.8399 34.04 37.9976C33.5706 38.1181 33.5298 38.1137 33.072 37.8907C32.2206 37.476 31.9142 37.07 31.6598 36.0192C31.4844 35.2953 31.475 34.909 31.6353 35.0081C31.6997 35.0478 31.7824 35.0809 31.8192 35.0817Z" fill="#BD072B"/>
<path d="M59.7669 21.6071C59.5767 21.6071 59.4057 21.5451 59.2536 21.4218C59.1205 21.2814 59.054 21.1226 59.054 20.9462V3.76857C59.054 3.57479 59.1205 3.41623 59.2536 3.2929C59.4057 3.16958 59.5767 3.10791 59.7669 3.10791H68.4641C70.8593 3.10791 72.6368 3.56599 73.7964 4.48216C74.9751 5.38068 75.5644 6.66677 75.5644 8.34055C75.5644 9.22143 75.3172 9.97025 74.823 10.5869C74.3477 11.1859 73.8059 11.6263 73.1976 11.9082C73.977 12.243 74.6329 12.7804 75.1651 13.5203C75.6975 14.2603 75.9636 15.0884 75.9636 16.0045C75.9636 17.7663 75.3363 19.1405 74.0816 20.1272C72.8269 21.1138 71.0399 21.6071 68.7206 21.6071H59.7669ZM67.8937 10.4547C68.6541 10.4547 69.2339 10.2786 69.6331 9.92617C70.0324 9.55619 70.232 9.07166 70.232 8.47267C70.232 7.89126 70.0324 7.42438 69.6331 7.07205C69.2339 6.71964 68.6541 6.54344 67.8937 6.54344H64.1867V10.4547H67.8937ZM68.1504 18.1716C68.9298 18.1716 69.5381 17.9601 69.9754 17.5373C70.4126 17.1144 70.6312 16.6035 70.6312 16.0045C70.6312 15.3702 70.4126 14.8505 69.9754 14.4453C69.5381 14.0224 68.9298 13.811 68.1504 13.811H64.1867V18.1716H68.1504Z" fill="#BD072B"/>
<path d="M79.8447 21.6071C79.6546 21.6071 79.4835 21.5451 79.3315 21.4218C79.1984 21.2814 79.1318 21.1226 79.1318 20.9462V3.76857C79.1318 3.57479 79.1984 3.41623 79.3315 3.2929C79.4835 3.16958 79.6546 3.10791 79.8447 3.10791H93.1615C93.3706 3.10791 93.5417 3.16958 93.6747 3.2929C93.8078 3.41623 93.8743 3.57479 93.8743 3.76857V6.25277C93.8743 6.42897 93.8078 6.58753 93.6747 6.72844C93.5417 6.85177 93.3706 6.91343 93.1615 6.91343H84.065V10.4811H92.5341C92.7432 10.4811 92.9143 10.5516 93.0474 10.6926C93.1805 10.8159 93.247 10.9745 93.247 11.1682V13.4674C93.247 13.6437 93.1805 13.8022 93.0474 13.9431C92.9143 14.0664 92.7432 14.1281 92.5341 14.1281H84.065V17.8016H93.3896C93.5987 17.8016 93.7698 17.8632 93.9028 17.9866C94.0359 18.1099 94.1024 18.2684 94.1024 18.4622V20.9462C94.1024 21.1226 94.0359 21.2814 93.9028 21.4218C93.7698 21.5451 93.5987 21.6071 93.3896 21.6071H79.8447Z" fill="#BD072B"/>
<path d="M96.289 21.6071C96.1179 21.6071 95.9658 21.554 95.8328 21.4483C95.7187 21.325 95.6616 21.1928 95.6616 21.0518C95.6616 20.9285 95.6996 20.8229 95.7757 20.7349L101.992 12.1725L96.232 3.98C96.1749 3.87431 96.1464 3.76857 96.1464 3.66289C96.1464 3.52191 96.2034 3.39859 96.3175 3.2929C96.4316 3.16958 96.5741 3.10791 96.7452 3.10791H100.88C101.108 3.10791 101.298 3.16078 101.45 3.26647C101.602 3.37221 101.745 3.50433 101.878 3.66289L105.271 8.44623L108.722 3.66289C108.969 3.2929 109.301 3.10791 109.72 3.10791H113.655C113.807 3.10791 113.94 3.16958 114.054 3.2929C114.187 3.39859 114.254 3.52191 114.254 3.66289C114.254 3.78621 114.215 3.89189 114.139 3.98L108.351 12.1461L114.625 20.7349C114.681 20.8051 114.71 20.9114 114.71 21.0518C114.71 21.1928 114.653 21.325 114.539 21.4483C114.425 21.554 114.282 21.6071 114.111 21.6071H109.862C109.463 21.6071 109.13 21.4306 108.864 21.0784L105.101 16.0045L101.365 21.0784C101.156 21.4306 100.832 21.6071 100.395 21.6071H96.289Z" fill="#BD072B"/>
<path d="M59.4903 40.4054C59.3795 40.4054 59.2756 40.3641 59.1787 40.2814C59.0955 40.185 59.054 40.0813 59.054 39.9702C59.054 39.8876 59.0608 39.8251 59.0748 39.7838L63.958 26.4811C63.9996 26.315 64.0896 26.1772 64.2282 26.0661C64.3667 25.956 64.5468 25.9009 64.7684 25.9009H67.844C68.0656 25.9009 68.2457 25.956 68.3842 26.0661C68.5228 26.1772 68.6128 26.315 68.6544 26.4811L73.5169 39.7838L73.5585 39.9702C73.5585 40.0813 73.51 40.185 73.413 40.2814C73.3299 40.3641 73.226 40.4054 73.1013 40.4054H70.5453C70.2129 40.4054 69.9912 40.2603 69.8804 39.9702L69.0699 37.8567H63.5217L62.7321 39.9702C62.6212 40.2603 62.3926 40.4054 62.0463 40.4054H59.4903ZM68.2387 34.8728L66.3062 29.4026L64.3737 34.8728H68.2387Z" fill="#BD072B"/>
<path d="M80.8315 40.4054C78.8773 40.4054 77.3457 39.9356 76.2369 38.996C75.142 38.0556 74.5945 36.6399 74.5945 34.7462V26.4114C74.5945 26.2611 74.6431 26.1389 74.7401 26.0439C74.8509 25.948 74.9757 25.9009 75.1143 25.9009H77.7961C77.9486 25.9009 78.0734 25.948 78.1704 26.0439C78.2813 26.1389 78.3367 26.2611 78.3367 26.4114V34.7263C78.3367 35.6116 78.5446 36.2787 78.9605 36.7277C79.3901 37.164 80.0069 37.3821 80.8107 37.3821C81.6008 37.3821 82.2106 37.1567 82.6402 36.7078C83.0699 36.2579 83.2847 35.598 83.2847 34.7263V26.4114C83.2847 26.2611 83.3332 26.1389 83.4303 26.0439C83.5411 25.948 83.6659 25.9009 83.8045 25.9009H86.5072C86.6597 25.9009 86.7844 25.948 86.8814 26.0439C86.9784 26.1389 87.0269 26.2611 87.0269 26.4114V34.7462C87.0269 36.6399 86.4725 38.0556 85.3638 38.996C84.2688 39.9356 82.758 40.4054 80.8315 40.4054Z" fill="#BD072B"/>
<path d="M93.9199 40.4054C93.7789 40.4054 93.652 40.3576 93.5393 40.2603C93.4406 40.1501 93.3912 40.0253 93.3912 39.8876V29.1538H89.6277C89.4867 29.1538 89.3598 29.1051 89.2471 29.0087C89.1484 28.8986 89.0991 28.7737 89.0991 28.636V26.4187C89.0991 26.2663 89.1484 26.1423 89.2471 26.0459C89.3598 25.9486 89.4867 25.9009 89.6277 25.9009H101.003C101.158 25.9009 101.285 25.9486 101.383 26.0459C101.482 26.1423 101.532 26.2663 101.532 26.4187V28.636C101.532 28.7875 101.482 28.9123 101.383 29.0087C101.285 29.1051 101.158 29.1538 101.003 29.1538H97.2394V39.8876C97.2394 40.0253 97.1901 40.1501 97.0914 40.2603C96.9927 40.3576 96.8659 40.4054 96.7108 40.4054H93.9199Z" fill="#BD072B"/>
<path d="M108.255 40.4054C106.21 40.4054 104.6 39.9421 103.425 39.0156C102.25 38.0882 101.626 36.7253 101.553 34.9258C101.539 34.5366 101.531 33.9591 101.531 33.1933C101.531 32.4141 101.539 31.8303 101.553 31.4412C101.626 29.6676 102.257 28.3046 103.446 27.3513C104.65 26.3847 106.253 25.9009 108.255 25.9009C110.257 25.9009 111.859 26.3847 113.064 27.3513C114.268 28.3046 114.899 29.6676 114.957 31.4412C114.986 32.2195 115 32.8041 115 33.1933C115 33.5691 114.986 34.1466 114.957 34.9258C114.885 36.7253 114.26 38.0882 113.086 39.0156C111.91 39.9421 110.3 40.4054 108.255 40.4054ZM108.255 37.5045C109.053 37.5045 109.684 37.2831 110.148 36.8395C110.626 36.3968 110.881 35.7184 110.91 34.8053C110.938 34.0261 110.954 33.4754 110.954 33.1531C110.954 32.8041 110.938 32.2534 110.91 31.501C110.881 30.5878 110.626 29.9095 110.148 29.4668C109.67 29.0231 109.038 28.8018 108.255 28.8018C107.472 28.8018 106.841 29.0231 106.362 29.4668C105.898 29.9095 105.644 30.5878 105.6 31.501C105.586 31.8776 105.579 32.4275 105.579 33.1531C105.579 33.8645 105.586 34.4152 105.6 34.8053C105.644 35.7184 105.898 36.3968 106.362 36.8395C106.826 37.2831 107.457 37.5045 108.255 37.5045Z" fill="#BD072B"/>
</svg>
